<svg width="65" height="65" viewBox="0 0 65 65" fill="none" xmlns="http://www.w3.org/2000/svg">
<path d="M9.05626 34.5331C7.0189 30.727 6.4174 26.3153 7.36142 22.1026C8.30545 17.8899 10.7321 14.1568 14.1989 11.584C17.6658 9.01128 21.9418 7.77022 26.2473 8.08717C30.5528 8.40413 34.601 10.258 37.6537 13.3107C40.7064 16.3634 42.5603 20.4116 42.8772 24.7171C43.1942 29.0226 41.9531 33.2986 39.3804 36.7655C36.8076 40.2323 33.0745 42.659 28.8618 43.603C24.6491 44.547 20.2375 43.9455 16.4313 41.9081L9.49126 43.9482C9.14665 44.0494 8.78115 44.0559 8.43315 43.9671C8.08514 43.8783 7.76748 43.6974 7.51351 43.4434C7.25955 43.1894 7.07866 42.8718 6.98984 42.5238C6.90103 42.1758 6.90756 41.8103 7.00876 41.4656L9.05626 34.5331Z" stroke="white" stroke-width="3" stroke-linecap="round" stroke-linejoin="round"/>
<path d="M41.9163 20.0608C44.9401 20.2252 47.8735 21.1498 50.4451 22.7491C53.0166 24.3483 55.1431 26.5705 56.6277 29.2099C58.1123 31.8493 58.907 34.8206 58.9382 37.8487C58.9694 40.8768 58.2361 43.8638 56.8063 46.5333L58.8463 53.4733C58.9475 53.8179 58.954 54.1834 58.8652 54.5314C58.7764 54.8794 58.5955 55.1971 58.3415 55.451C58.0876 55.705 57.7699 55.8859 57.4219 55.9747C57.0739 56.0635 56.7084 56.057 56.3638 55.9558L49.4313 53.9083C47.1413 55.133 44.6135 55.848 42.0212 56.0044C39.429 56.1607 36.8336 55.7547 34.4129 54.8142C31.9923 53.8736 29.8037 52.4207 27.9971 50.5551C26.1905 48.6896 24.8086 46.4554 23.9463 44.0058" stroke="white" stroke-width="3" stroke-linecap="round" stroke-linejoin="round"/>
</svg>
