<svg width="52" height="52" viewBox="0 0 52 52" fill="none" xmlns="http://www.w3.org/2000/svg">
<path d="M14 44.3489C18.4183 44.3489 22 40.7672 22 36.3489C22 31.9306 18.4183 28.3489 14 28.3489C9.58172 28.3489 6 31.9306 6 36.3489C6 40.7672 9.58172 44.3489 14 44.3489Z" stroke="#3139FB" stroke-width="3" stroke-linecap="round" stroke-linejoin="round"/>
<path d="M14 18.3489C18.4183 18.3489 22 14.7672 22 10.3489C22 5.9306 18.4183 2.34888 14 2.34888C9.58172 2.34888 6 5.9306 6 10.3489C6 14.7672 9.58172 18.3489 14 18.3489Z" stroke="#3139FB" stroke-width="3" stroke-linecap="round" stroke-linejoin="round"/>
<path d="M38 44.3489C42.4183 44.3489 46 40.7672 46 36.3489C46 31.9306 42.4183 28.3489 38 28.3489C33.5817 28.3489 30 31.9306 30 36.3489C30 40.7672 33.5817 44.3489 38 44.3489Z" stroke="#3139FB" stroke-width="3" stroke-linecap="round" stroke-linejoin="round"/>
<path d="M2 50.3489C3.39721 48.4859 5.20896 46.9739 7.2918 45.9325C9.37463 44.8911 11.6713 44.3489 14 44.3489C16.3287 44.3489 18.6254 44.8911 20.7082 45.9325C22.791 46.9739 24.6028 48.4859 26 50.3489C27.3972 48.4859 29.209 46.9739 31.2918 45.9325C33.3746 44.8911 35.6713 44.3489 38 44.3489C40.3287 44.3489 42.6254 44.8911 44.7082 45.9325C46.791 46.9739 48.6028 48.4859 50 50.3489" stroke="#3139FB" stroke-width="3" stroke-linecap="round" stroke-linejoin="round"/>
<path d="M38 18.3489C42.4183 18.3489 46 14.7672 46 10.3489C46 5.9306 42.4183 2.34888 38 2.34888C33.5817 2.34888 30 5.9306 30 10.3489C30 14.7672 33.5817 18.3489 38 18.3489Z" stroke="#3139FB" stroke-width="3" stroke-linecap="round" stroke-linejoin="round"/>
<path d="M2 24.3489C3.39721 22.4859 5.20896 20.9739 7.2918 19.9325C9.37463 18.8911 11.6713 18.3489 14 18.3489C16.3287 18.3489 18.6254 18.8911 20.7082 19.9325C22.791 20.9739 24.6028 22.4859 26 24.3489C27.3972 22.4859 29.209 20.9739 31.2918 19.9325C33.3746 18.8911 35.6713 18.3489 38 18.3489C40.3287 18.3489 42.6254 18.8911 44.7082 19.9325C46.791 20.9739 48.6028 22.4859 50 24.3489" stroke="#3139FB" stroke-width="3" stroke-linecap="round" stroke-linejoin="round"/>
</svg>
