<svg width="47" height="28" viewBox="0 0 47 28" fill="none" xmlns="http://www.w3.org/2000/svg">
<path d="M25.6667 5.00004C25.6667 4.60222 25.8247 4.22069 26.106 3.93938C26.3873 3.65808 26.7689 3.50004 27.1667 3.50004H45.1667C45.5645 3.50004 45.946 3.65808 46.2273 3.93938C46.5086 4.22069 46.6667 4.60222 46.6667 5.00004C46.6667 5.39787 46.5086 5.7794 46.2273 6.0607C45.946 6.34201 45.5645 6.50004 45.1667 6.50004H27.1667C26.7689 6.50004 26.3873 6.34201 26.106 6.0607C25.8247 5.7794 25.6667 5.39787 25.6667 5.00004ZM45.1667 12.5H27.1667C26.7689 12.5 26.3873 12.6581 26.106 12.9394C25.8247 13.2207 25.6667 13.6022 25.6667 14C25.6667 14.3979 25.8247 14.7794 26.106 15.0607C26.3873 15.342 26.7689 15.5 27.1667 15.5H45.1667C45.5645 15.5 45.946 15.342 46.2273 15.0607C46.5086 14.7794 46.6667 14.3979 46.6667 14C46.6667 13.6022 46.5086 13.2207 46.2273 12.9394C45.946 12.6581 45.5645 12.5 45.1667 12.5ZM45.1667 21.5H31.6667C31.2689 21.5 30.8873 21.6581 30.606 21.9394C30.3247 22.2207 30.1667 22.6022 30.1667 23C30.1667 23.3979 30.3247 23.7794 30.606 24.0607C30.8873 24.342 31.2689 24.5 31.6667 24.5H45.1667C45.5645 24.5 45.946 24.342 46.2273 24.0607C46.5086 23.7794 46.6667 23.3979 46.6667 23C46.6667 22.6022 46.5086 22.2207 46.2273 21.9394C45.946 21.6581 45.5645 21.5 45.1667 21.5ZM19.1586 16.625C20.6472 15.4784 21.7397 13.8946 22.2827 12.0956C22.8257 10.2967 22.792 8.37296 22.1864 6.59414C21.5808 4.81533 20.4336 3.27069 18.9056 2.17686C17.3777 1.08303 15.5458 0.494873 13.6667 0.494873C11.7876 0.494873 9.95563 1.08303 8.42772 2.17686C6.89981 3.27069 5.75259 4.81533 5.14695 6.59414C4.54132 8.37296 4.50764 10.2967 5.05065 12.0956C5.59366 13.8946 6.68611 15.4784 8.1748 16.625C4.30855 18.2619 1.26168 21.5563 0.213555 25.625C0.156308 25.8468 0.150583 26.0786 0.19682 26.3029C0.243057 26.5272 0.340028 26.7379 0.480301 26.9189C0.620574 27.0999 0.800425 27.2464 1.00607 27.3471C1.21171 27.4478 1.43769 27.5002 1.66668 27.5H25.6667C25.8957 27.5002 26.1216 27.4478 26.3273 27.3471C26.5329 27.2464 26.7128 27.0999 26.8531 26.9189C26.9933 26.7379 27.0903 26.5272 27.1365 26.3029C27.1828 26.0786 27.1771 25.8468 27.1198 25.625C26.0717 21.5544 23.0248 18.26 19.1586 16.625Z" fill="#3139FB"/>
</svg>
