<svg width="150" height="15" viewBox="0 0 150 15" fill="none" xmlns="http://www.w3.org/2000/svg">
	<path
		d="M74.4224 14.3741H69.3024V0.686108H74.4224V14.3741ZM69.8024 13.8741H73.9224V1.18611H69.8024V13.8741ZM81.5464 14.3741H76.5294V0.686108H87.0114C88.513 0.564508 90.0084 0.986078 91.2254 1.87411C91.7493 2.35342 92.1554 2.9473 92.4119 3.6094C92.6685 4.27151 92.7686 4.98394 92.7044 5.69111C92.7792 6.91308 92.3903 8.11831 91.6154 9.06611C90.6984 10.1181 89.1724 10.6601 87.0804 10.6791C86.5534 10.6931 82.6044 10.6791 81.5494 10.6791L81.5464 14.3741ZM77.0264 13.8741H81.0464V10.1741H81.2974C81.3484 10.1741 86.4754 10.1901 87.0684 10.1741C89.0174 10.1571 90.4184 9.67411 91.2374 8.73111C91.9272 7.87356 92.2698 6.78826 92.1974 5.69011C92.2589 5.05648 92.1736 4.4172 91.9482 3.82185C91.7227 3.2265 91.3632 2.69108 90.8974 2.25711C89.769 1.44721 88.3884 1.06704 87.0044 1.18511H77.0294L77.0264 13.8741ZM85.9494 7.60411H81.0124V3.87811H85.9824C86.3347 3.82943 86.6936 3.87055 87.0257 3.99764C87.3579 4.12474 87.6526 4.33369 87.8824 4.60511C88.0909 4.95205 88.1892 5.35409 88.1644 5.75811C88.1831 6.13321 88.1021 6.50658 87.9294 6.84011C87.6923 7.12599 87.3856 7.34606 87.0388 7.47916C86.6921 7.61226 86.3169 7.65391 85.9494 7.60011V7.60411ZM81.5124 7.10411H85.9494C86.7694 7.10411 87.2774 6.93311 87.5024 6.58111C87.6263 6.32526 87.6824 6.04187 87.6654 5.75811C87.6873 5.46017 87.6227 5.16225 87.4794 4.90011L87.4734 4.89111C87.2354 4.54111 86.7624 4.37811 85.9824 4.37811H81.5124V7.10411ZM101.829 14.5761C97.3394 14.5761 94.6594 13.4611 93.6384 11.1681C93.4713 10.7252 93.3579 10.2639 93.3004 9.79411L93.2564 9.50611H98.5984L98.6334 9.71611C98.6745 9.92931 98.7654 10.13 98.8974 10.3021C99.1084 10.5571 99.8124 10.9851 102.148 10.9851C104.956 10.9851 104.956 10.4921 104.956 10.2271C104.956 9.78011 104.631 9.62711 102.341 9.38311L101.906 9.34211C101.044 9.26111 99.9544 9.15811 99.4564 9.11511C95.2564 8.73511 93.3814 7.43011 93.3814 4.88511C93.3814 2.21211 96.5724 0.485107 101.511 0.485107C105.54 0.485107 108.136 1.54711 109.225 3.64411C109.483 4.13189 109.657 4.6601 109.738 5.20611L109.773 5.48711H104.425L104.403 5.26111C104.382 5.08449 104.307 4.9188 104.187 4.78711C103.987 4.51911 103.355 4.07611 101.393 4.07611C98.9844 4.07611 98.6524 4.38411 98.6524 4.71611C98.6524 5.15911 99.4134 5.31611 101.852 5.57711C102.869 5.66011 104.504 5.82811 105.064 5.89611C108.585 6.27811 110.156 7.55111 110.156 10.0251C110.157 12.1001 108.712 14.5761 101.829 14.5761ZM93.8404 10.0061C93.8905 10.3359 93.9767 10.6591 94.0974 10.9701C95.0274 13.0591 97.5574 14.0761 101.829 14.0761C105.401 14.0761 109.66 13.3761 109.66 10.0251C109.66 7.83211 108.27 6.74611 105.011 6.39311C104.451 6.32511 102.826 6.15811 101.811 6.07411C99.2114 5.79211 98.1544 5.64211 98.1544 4.71611C98.1544 3.75811 99.2934 3.57611 101.395 3.57611C103.056 3.57611 104.129 3.87611 104.584 4.48111C104.708 4.63016 104.802 4.80206 104.86 4.98711H109.194C109.107 4.60036 108.969 4.2268 108.784 3.87611C107.784 1.95711 105.341 0.985107 101.513 0.985107C96.8784 0.985107 93.8834 2.51611 93.8834 4.88511C93.8834 7.14511 95.5644 8.26111 99.5024 8.61711C100.002 8.66011 101.091 8.76311 101.955 8.84511L102.393 8.88611C104.52 9.11011 105.458 9.25011 105.458 10.2271C105.458 11.2791 104.245 11.4851 102.15 11.4851C100.212 11.4851 98.9884 11.1941 98.5154 10.6211C98.3696 10.4384 98.2596 10.2297 98.1914 10.0061H93.8404ZM119.656 14.5591C114.436 14.5591 111.556 12.4481 111.556 8.61411V0.686108H116.608V8.61411C116.608 9.92911 117.785 10.6831 119.836 10.6831C121.796 10.6831 123.013 9.89611 123.013 8.63111V0.686108H128.013V9.03411C128.018 12.5451 124.969 14.5591 119.653 14.5591H119.656ZM112.056 1.18611V8.61411C112.056 13.3521 116.814 14.0591 119.656 14.0591C122.594 14.0591 127.521 13.4061 127.521 9.03411V1.18611H123.521V8.63111C123.521 10.1811 122.077 11.1831 119.844 11.1831C117.51 11.1831 116.116 10.2231 116.116 8.61411V1.18611H112.056ZM149.201 14.3741H144.433V8.19411L141.729 14.3741H137.57L134.894 8.20611V14.3741H130.109V0.686108H136.403L139.673 8.23311L143.101 0.686108H149.207L149.201 14.3741ZM144.933 13.8741H148.701V1.18611H143.419L139.657 9.46511L136.071 1.18611H130.605V13.8741H134.39V5.80011L137.89 13.8771H141.39L144.927 5.81211L144.933 13.8741ZM4.7834 0.936108H0.229401V14.1241H12.8134V10.6131H4.7834V0.936108ZM22.0054 0.636107C16.1924 0.636107 13.1354 3.39111 13.1354 7.43611C13.1354 12.0061 16.3444 14.3241 22.0054 14.3241C28.2374 14.3241 30.8584 11.6361 30.8584 7.43611C30.8584 3.17111 27.9014 0.634108 22.0054 0.634108V0.636107ZM21.9884 4.06311C22.3841 4.06125 22.7796 4.08429 23.1724 4.13211L18.0814 9.22311C17.8405 8.67821 17.723 8.08671 17.7374 7.49111C17.7374 5.42211 18.7794 4.06111 21.9884 4.06111V4.06311ZM22.0054 10.9511C21.6241 10.9528 21.2431 10.9314 20.8644 10.8871L25.9644 5.78711C26.1963 6.32301 26.3073 6.90344 26.2894 7.48711C26.2894 9.50011 25.3294 10.9491 22.0054 10.9491V10.9511ZM39.8814 9.15111H44.5684C44.4994 9.47641 44.3556 9.78111 44.1484 10.0411C43.1767 10.8327 41.9366 11.2179 40.6874 11.1161C40.0586 11.1834 39.4228 11.1147 38.8229 10.9147C38.223 10.7148 37.673 10.3882 37.2104 9.95711C36.7365 9.26201 36.5114 8.42721 36.5714 7.58811C36.4947 6.70885 36.7395 5.83163 37.2604 5.11911C37.9154 4.37911 39.0244 4.06011 40.6544 4.06011C41.6915 3.97424 42.7273 4.24059 43.5944 4.81611C43.8677 5.03319 44.072 5.32502 44.1824 5.65611H48.5294C48.4978 5.11058 48.3666 4.57544 48.1424 4.07711C47.1014 1.96011 44.6814 0.700108 40.5664 0.700108C36.9874 0.700108 34.5854 1.79211 33.2584 3.43911C32.382 4.62847 31.9321 6.07855 31.9814 7.55511C31.9247 9.06511 32.363 10.5522 33.2294 11.7901C34.5404 13.4901 36.8754 14.3261 39.6814 14.3261C41.5469 14.4562 43.3997 13.9337 44.9224 12.8481L45.0404 14.1241H48.6514V6.31211H39.8814V9.15111ZM58.9004 0.633107C53.0884 0.633107 50.0304 3.38811 50.0304 7.43311C50.0304 12.0031 53.2384 14.3211 58.9004 14.3211C65.1334 14.3211 67.7544 11.6331 67.7544 7.43311C67.7544 3.17111 64.7974 0.634108 58.9004 0.634108V0.633107ZM58.8844 4.06011C59.2697 4.05897 59.6547 4.08101 60.0374 4.12611L54.9664 9.20011C54.733 8.66121 54.6194 8.07821 54.6334 7.49111C54.6294 5.42211 55.6754 4.06011 58.8844 4.06011ZM58.9004 10.9481C58.509 10.9498 58.1179 10.927 57.7294 10.8801L62.8464 5.76211C63.0871 6.30514 63.2023 6.89543 63.1834 7.48911C63.1854 9.50011 62.2294 10.9491 58.9004 10.9491V10.9481Z"
		fill="#9747FF" />
</svg>