<svg width="139" height="33" viewBox="0 0 139 33" fill="none" xmlns="http://www.w3.org/2000/svg">
	<g clip-path="url(#clip0_1_71)">
		<path d="M39.8997 23.6999H48.9819V21.1138H42.6692V9.03809H39.8997V23.6999Z" fill="black" />
		<path
			d="M54.4396 24.0055C55.5393 24.0055 56.5066 23.7611 57.3415 23.2724C58.1832 22.7768 58.8382 22.0947 59.3066 21.2259C59.7817 20.3502 60.0193 19.3422 60.0193 18.2019C60.0193 17.0683 59.7851 16.0671 59.3168 15.1982C58.8484 14.3226 58.1933 13.637 57.3516 13.1415C56.5168 12.646 55.5461 12.3982 54.4396 12.3982C53.3536 12.3982 52.3931 12.6426 51.5582 13.1313C50.7233 13.62 50.0683 14.3022 49.5931 15.1779C49.118 16.0467 48.8804 17.0547 48.8804 18.2019C48.8804 19.3354 49.1112 20.34 49.5728 21.2156C50.0411 22.0845 50.6928 22.7667 51.5276 23.2622C52.3626 23.7577 53.3332 24.0055 54.4396 24.0055ZM54.4396 21.4193C53.5776 21.4193 52.9226 21.1308 52.4746 20.5539C52.0333 19.9701 51.8128 19.1861 51.8128 18.2019C51.8128 17.2448 52.0232 16.4709 52.444 15.8804C52.8716 15.2831 53.5368 14.9844 54.4396 14.9844C55.3153 14.9844 55.9737 15.2763 56.4149 15.86C56.8629 16.4438 57.0869 17.2244 57.0869 18.2019C57.0869 19.1454 56.8664 19.9192 56.4251 20.5233C55.9907 21.1206 55.3288 21.4193 54.4396 21.4193Z"
			fill="black" />
		<path
			d="M65.4961 24.0055C66.012 24.0055 66.4872 23.9444 66.9216 23.8222C67.3628 23.7 67.7633 23.5269 68.1231 23.3029V24.4128C68.1367 24.82 68.0314 25.1594 67.8074 25.4309C67.5902 25.7092 67.2984 25.9163 66.9318 26.052C66.5652 26.1946 66.1749 26.2659 65.7609 26.2659C65.374 26.2659 65.0142 26.181 64.6816 26.0113C64.3558 25.8416 64.1046 25.5939 63.9281 25.268L61.3624 26.5102C61.7832 27.2229 62.3839 27.7965 63.1645 28.2309C63.9452 28.6721 64.8038 28.8928 65.7405 28.8928C66.5483 28.8928 67.2984 28.7841 67.9907 28.5669C68.6831 28.3565 69.2668 28.0341 69.742 27.5996C70.2239 27.1652 70.5532 26.612 70.7296 25.94C70.7907 25.7024 70.8314 25.4615 70.8518 25.2171C70.8789 24.9796 70.8925 24.725 70.8925 24.4535V12.7036H68.4692V13.3146C68.0959 13.0227 67.6716 12.7987 67.1965 12.6426C66.7281 12.4796 66.2089 12.3982 65.6387 12.3982C64.5866 12.3982 63.6702 12.6494 62.8896 13.1516C62.109 13.654 61.5015 14.3429 61.0671 15.2186C60.6394 16.0874 60.4256 17.0819 60.4256 18.2019C60.4256 19.3015 60.636 20.2891 61.0569 21.1648C61.4845 22.0404 62.0784 22.7328 62.8387 23.2419C63.5989 23.7509 64.4848 24.0055 65.4961 24.0055ZM65.9441 21.5415C65.3468 21.5415 64.8581 21.3921 64.478 21.0935C64.0979 20.7948 63.8161 20.3944 63.6329 19.892C63.4496 19.3829 63.358 18.8196 63.358 18.2019C63.358 17.5909 63.453 17.0344 63.6431 16.532C63.8332 16.0229 64.125 15.6191 64.5187 15.3204C64.9192 15.0149 65.4283 14.8622 66.046 14.8622C66.9148 14.8622 67.5359 15.1711 67.9092 15.7888C68.2826 16.3996 68.4692 17.204 68.4692 18.2019C68.4692 19.1996 68.2792 20.0074 67.8991 20.6251C67.5257 21.236 66.8741 21.5415 65.9441 21.5415Z"
			fill="black" />
		<path
			d="M77.4704 24.0055C78.5701 24.0055 79.5374 23.7611 80.3723 23.2724C81.2138 22.7768 81.869 22.0947 82.337 21.2259C82.8122 20.3502 83.0498 19.3422 83.0498 18.2019C83.0498 17.0683 82.8162 16.0671 82.3474 15.1982C81.8794 14.3226 81.2242 13.637 80.3824 13.1415C79.5476 12.646 78.5768 12.3982 77.4704 12.3982C76.3844 12.3982 75.4239 12.6426 74.589 13.1313C73.7541 13.62 73.0991 14.3022 72.6239 15.1779C72.1488 16.0467 71.9112 17.0547 71.9112 18.2019C71.9112 19.3354 72.142 20.34 72.6036 21.2156C73.0719 22.0845 73.7236 22.7667 74.5584 23.2622C75.3934 23.7577 76.364 24.0055 77.4704 24.0055ZM77.4704 21.4193C76.6084 21.4193 75.9533 21.1308 75.5053 20.5539C75.0641 19.9701 74.8436 19.1861 74.8436 18.2019C74.8436 17.2448 75.054 16.4709 75.4748 15.8804C75.9024 15.2831 76.5676 14.9844 77.4704 14.9844C78.3461 14.9844 79.0045 15.2763 79.4457 15.86C79.8937 16.4438 80.1177 17.2244 80.1177 18.2019C80.1177 19.1454 79.8971 19.9192 79.4559 20.5233C79.0215 21.1206 78.3596 21.4193 77.4704 21.4193Z"
			fill="black" />
		<path
			d="M84.2706 11.1763H87.0402V8.73267H84.2706V11.1763ZM84.2706 23.6999H87.0402V12.7035H84.2706V23.6999Z"
			fill="black" />
		<path
			d="M88.8506 28.5873H91.6402V23.3029C92.0002 23.5269 92.397 23.7 92.8314 23.8222C93.273 23.9444 93.7514 24.0055 94.2674 24.0055C95.2786 24.0055 96.165 23.7509 96.925 23.2419C97.685 22.7328 98.2754 22.0404 98.6962 21.1648C99.1242 20.2891 99.3378 19.3015 99.3378 18.2019C99.3378 17.0819 99.121 16.0874 98.6866 15.2186C98.2586 14.3429 97.6546 13.654 96.8738 13.1516C96.093 12.6494 95.177 12.3982 94.125 12.3982C93.5546 12.3982 93.0322 12.4796 92.557 12.6426C92.0882 12.7987 91.6674 13.0227 91.2946 13.3146V12.7036H88.8506V28.5873ZM93.8194 21.5415C92.8962 21.5415 92.245 21.236 91.8642 20.6251C91.4842 20.0074 91.2946 19.1996 91.2946 18.2019C91.2946 17.204 91.481 16.3996 91.8546 15.7888C92.2346 15.1711 92.8554 14.8622 93.7178 14.8622C94.3354 14.8622 94.841 15.0149 95.2346 15.3204C95.6354 15.6191 95.9306 16.0229 96.1202 16.532C96.3106 17.0344 96.4058 17.5909 96.4058 18.2019C96.4058 18.8196 96.3138 19.3829 96.1306 19.892C95.9474 20.3944 95.6658 20.7948 95.2858 21.0935C94.9058 21.3921 94.417 21.5415 93.8194 21.5415Z"
			fill="black" />
		<path
			d="M104.355 24.0055C105.794 24.0055 106.921 23.6831 107.735 23.0382C108.55 22.3933 108.957 21.5076 108.957 20.3808C108.957 19.5255 108.692 18.8501 108.163 18.3546C107.64 17.8591 106.751 17.4484 105.495 17.1226C104.64 16.9053 104.002 16.7288 103.581 16.5931C103.167 16.4574 102.892 16.325 102.756 16.196C102.627 16.0671 102.563 15.9076 102.563 15.7175C102.563 15.3984 102.715 15.1541 103.021 14.9844C103.334 14.8147 103.744 14.7468 104.253 14.7808C105.332 14.8622 105.923 15.3238 106.025 16.1655L108.855 15.6564C108.713 14.6586 108.224 13.8678 107.389 13.284C106.555 12.6935 105.489 12.3982 104.192 12.3982C102.862 12.3982 101.799 12.7104 101.005 13.3349C100.211 13.9594 99.8138 14.8011 99.8138 15.86C99.8138 16.7017 100.089 17.3669 100.639 17.8556C101.188 18.3376 102.135 18.7516 103.479 19.0979C104.274 19.3083 104.857 19.478 105.231 19.6069C105.611 19.7359 105.855 19.8683 105.963 20.004C106.072 20.133 106.127 20.3061 106.127 20.5233C106.127 20.8695 105.991 21.141 105.719 21.3379C105.448 21.5279 105.061 21.6229 104.559 21.6229C103.947 21.6229 103.442 21.477 103.042 21.1851C102.648 20.8932 102.393 20.4894 102.278 19.9735L99.4474 20.4011C99.6306 21.5483 100.147 22.4375 100.995 23.0688C101.851 23.6932 102.971 24.0055 104.355 24.0055Z"
			fill="black" />
		<path
			d="M114.066 24.0259C114.86 24.0259 115.552 23.8935 116.143 23.6287C116.734 23.364 117.229 23.0111 117.63 22.5699V23.7H120.073V12.7036H117.283V18.2833C117.283 18.9621 117.205 19.5119 117.049 19.9327C116.9 20.3468 116.707 20.6624 116.469 20.8796C116.231 21.0901 115.977 21.2326 115.705 21.3073C115.434 21.3819 115.179 21.4193 114.942 21.4193C114.351 21.4193 113.893 21.2869 113.567 21.0222C113.248 20.7575 113.017 20.4283 112.875 20.0346C112.732 19.6408 112.647 19.2506 112.62 18.8636C112.593 18.4699 112.579 18.1475 112.579 17.8963V12.7036H109.769V18.8739C109.769 19.0571 109.783 19.349 109.81 19.7495C109.837 20.1499 109.915 20.5946 110.044 21.0833C110.173 21.5652 110.387 22.0302 110.686 22.4782C110.991 22.9262 111.415 23.2961 111.959 23.588C112.501 23.8799 113.204 24.0259 114.066 24.0259Z"
			fill="black" />
		<path
			d="M121.677 23.7001H124.467V17.0411C124.467 16.4099 124.639 15.8974 124.986 15.5037C125.339 15.1032 125.803 14.903 126.381 14.903C126.985 14.903 127.457 15.1066 127.796 15.5139C128.142 15.9144 128.315 16.4778 128.315 17.2041V23.7001H131.085V17.0411C131.085 16.4099 131.258 15.8974 131.604 15.5037C131.957 15.1032 132.422 14.903 132.999 14.903C133.603 14.903 134.075 15.1066 134.414 15.5139C134.76 15.9144 134.934 16.4778 134.934 17.2041V23.7001H137.703V16.471C137.703 15.2695 137.38 14.2989 136.735 13.559C136.098 12.8123 135.151 12.439 133.895 12.439C133.189 12.439 132.541 12.5917 131.95 12.8971C131.359 13.2026 130.888 13.6201 130.535 14.1495C130.25 13.6337 129.843 13.2196 129.313 12.9074C128.783 12.5951 128.125 12.439 127.338 12.439C126.672 12.439 126.062 12.5714 125.505 12.8361C124.948 13.094 124.487 13.4504 124.12 13.9051V12.7037H121.677V23.7001Z"
			fill="black" />
		<path
			d="M16.6706 0.5C7.83403 0.5 0.670593 7.66344 0.670593 16.5C9.50715 16.5 16.6706 9.33656 16.6706 0.5Z"
			fill="#EEBA33" />
		<path
			d="M16.6706 32.5C25.5072 32.5 32.6706 25.3366 32.6706 16.5C23.834 16.5 16.6706 23.6634 16.6706 32.5Z"
			fill="#EEBA33" />
		<path
			d="M16.6706 0.5C25.5072 0.5 32.6706 7.66344 32.6706 16.5C23.834 16.5 16.6706 9.33656 16.6706 0.5Z"
			fill="#EEBA33" />
		<path
			d="M16.6706 32.5C7.83403 32.5 0.670592 25.3366 0.670593 16.5C9.50715 16.5 16.6706 23.6634 16.6706 32.5Z"
			fill="#EEBA33" />
	</g>
	<defs>
		<clipPath id="clip0_1_71">
			<rect width="137.6" height="32" fill="white" transform="translate(0.670593 0.5)" />
		</clipPath>
	</defs>
</svg>