<svg width="142" height="29" viewBox="0 0 142 29" fill="none" xmlns="http://www.w3.org/2000/svg">
	<path
		d="M41.1853 19.8565C41.1853 20.5551 41.0419 21.0918 40.7551 21.4668C40.4757 21.8418 40.0088 22.0293 39.3544 22.0293C38.7367 22.0293 38.2993 21.8418 38.0419 21.4668C37.7919 21.0918 37.6669 20.5551 37.6669 19.8565V8.19844C37.6669 7.4999 37.7919 6.96314 38.0419 6.58814C38.2993 6.21314 38.7367 6.02563 39.3544 6.02563C40.0088 6.02563 40.4757 6.21314 40.7551 6.58814C41.0419 6.96314 41.1853 7.4999 41.1853 8.19844V19.8565Z"
		fill="black" />
	<path
		d="M42.2534 16.4707C42.2534 15.6912 42.3783 14.956 42.6284 14.2648C42.8857 13.5662 43.268 12.956 43.7754 12.4339C44.2902 11.9118 44.9299 11.4964 45.6946 11.1876C46.4666 10.8787 47.371 10.7244 48.4078 10.7244C49.4005 10.7244 50.2791 10.8677 51.0438 11.1545C51.8086 11.4413 52.4519 11.842 52.9739 12.3567C53.496 12.864 53.8931 13.4706 54.1652 14.1765C54.4372 14.875 54.5733 15.6398 54.5733 16.4707C54.5733 17.2428 54.4445 17.9743 54.1872 18.6655C53.9299 19.3493 53.5438 19.9523 53.0291 20.4744C52.5144 20.989 51.871 21.4008 51.099 21.7097C50.3269 22.0111 49.4298 22.1618 48.4078 22.1618C47.4005 22.1618 46.5108 22.0185 45.7386 21.7317C44.9739 21.4376 44.3306 21.0368 43.8086 20.5294C43.2938 20.0148 42.9041 19.4119 42.6394 18.7207C42.382 18.0222 42.2534 17.2721 42.2534 16.4707ZM45.9262 16.4707C45.9262 16.956 45.9703 17.4192 46.0585 17.8604C46.1467 18.2942 46.2865 18.6766 46.4776 19.0075C46.6761 19.3383 46.9335 19.603 47.2497 19.8015C47.5659 19.9927 47.9519 20.0883 48.4078 20.0883C48.8269 20.0883 49.1909 20.0001 49.4997 19.8236C49.8159 19.6472 50.0732 19.4008 50.2718 19.0846C50.4776 18.7685 50.6321 18.3898 50.735 17.9486C50.8379 17.5001 50.8894 17.0075 50.8894 16.4707C50.8894 15.9854 50.8416 15.5258 50.7461 15.092C50.6578 14.6509 50.5144 14.2648 50.3159 13.9339C50.1174 13.5957 49.86 13.331 49.5438 13.1398C49.235 12.9413 48.8563 12.842 48.4078 12.842C47.9592 12.842 47.5769 12.9375 47.2607 13.1288C46.9446 13.3199 46.6872 13.5809 46.4887 13.9118C46.2902 14.2428 46.1467 14.6287 46.0585 15.07C45.9703 15.5111 45.9262 15.978 45.9262 16.4707Z"
		fill="black" />
	<path
		d="M63.6266 19.9008C63.428 20.2684 63.1854 20.5809 62.8986 20.8383C62.6193 21.0956 62.3067 21.3089 61.9612 21.478C61.6229 21.6397 61.259 21.761 60.8693 21.842C60.4869 21.9155 60.0935 21.9523 59.6891 21.9523C59.0126 21.9523 58.395 21.8309 57.8361 21.5882C57.2773 21.3456 56.7957 20.9963 56.3913 20.5405C55.9942 20.0773 55.6854 19.511 55.4648 18.842C55.2442 18.1728 55.1339 17.4081 55.1339 16.5478C55.1339 15.739 55.2369 14.9816 55.4428 14.2757C55.6486 13.5699 55.9464 12.9559 56.3362 12.4339C56.7333 11.9118 57.2185 11.5 57.7921 11.1986C58.3655 10.8971 59.02 10.7463 59.7553 10.7463C60.5935 10.7463 61.3362 10.9081 61.9832 11.2316C62.6376 11.5552 63.2002 12.0846 63.6708 12.8198V12.5332C63.6708 12.0037 63.8141 11.6067 64.1009 11.3419C64.395 11.0699 64.7994 10.9338 65.3141 10.9338C65.6229 10.9338 65.8839 10.9853 66.0972 11.0883C66.3104 11.1839 66.4795 11.3309 66.6045 11.5295C66.7296 11.7206 66.8178 11.9596 66.8693 12.2464C66.9281 12.5257 66.9574 12.8456 66.9574 13.2059V20.5957C66.9574 21.4927 66.8436 22.2941 66.6156 23C66.395 23.7059 66.0494 24.3015 65.5788 24.7868C65.1082 25.2721 64.5053 25.6397 63.77 25.8898C63.0347 26.1471 62.1597 26.2757 61.145 26.2757C60.4318 26.2757 59.7994 26.2427 59.2479 26.1765C58.7038 26.1177 58.2332 26.0258 57.8361 25.9008C57.4391 25.761 57.1377 25.6067 56.9317 25.4375C56.7333 25.2684 56.634 25.0478 56.634 24.7758C56.634 24.6213 56.656 24.4743 56.7001 24.3346C56.7443 24.1949 56.8104 24.0699 56.8986 23.9596C56.9942 23.8566 57.1156 23.7721 57.2627 23.7059C57.417 23.6471 57.6045 23.6177 57.8251 23.6177C58.0604 23.6177 58.2957 23.6324 58.531 23.6618C58.7736 23.6912 59.0237 23.7206 59.281 23.75C59.5457 23.7868 59.8214 23.8198 60.1082 23.8493C60.4023 23.8787 60.7185 23.8934 61.0567 23.8934C61.4612 23.8934 61.8214 23.853 62.1377 23.7721C62.4538 23.6912 62.7221 23.5478 62.9428 23.3419C63.1634 23.1361 63.3325 22.8603 63.4501 22.5147C63.5678 22.1765 63.6266 21.7427 63.6266 21.2133V19.9008ZM63.6266 16.4707C63.6266 15.9338 63.5862 15.4449 63.5053 15.0037C63.4318 14.5625 63.303 14.1876 63.1192 13.8787C62.9354 13.5625 62.6891 13.3199 62.3803 13.1508C62.0714 12.9743 61.6854 12.8861 61.2222 12.8861C60.7663 12.8861 60.3877 12.978 60.0862 13.1618C59.7921 13.3456 59.5568 13.5993 59.3803 13.9228C59.2038 14.2464 59.0789 14.625 59.0053 15.0589C58.9391 15.4927 58.9061 15.9559 58.9061 16.4485C58.9061 17.5735 59.1046 18.4192 59.5016 18.9853C59.8986 19.5515 60.4758 19.8346 61.2332 19.8346C61.5861 19.8273 61.9061 19.761 62.1927 19.636C62.4869 19.5037 62.7406 19.3015 62.9538 19.0294C63.167 18.7573 63.3325 18.4117 63.4501 17.9926C63.5678 17.5735 63.6266 17.0662 63.6266 16.4707Z"
		fill="black" />
	<path
		d="M67.9704 16.4707C67.9704 15.6912 68.0954 14.956 68.3454 14.2648C68.6028 13.5662 68.9851 12.956 69.4925 12.4339C70.0072 11.9118 70.6468 11.4964 71.4116 11.1876C72.1837 10.8787 73.0881 10.7244 74.1249 10.7244C75.1174 10.7244 75.9961 10.8677 76.7608 11.1545C77.5255 11.4413 78.1689 11.842 78.691 12.3567C79.2131 12.864 79.6101 13.4706 79.8821 14.1765C80.1542 14.875 80.2902 15.6398 80.2902 16.4707C80.2902 17.2428 80.1616 17.9743 79.9043 18.6655C79.6468 19.3493 79.2609 19.9523 78.7461 20.4744C78.2314 20.989 77.588 21.4008 76.816 21.7097C76.0439 22.0111 75.1469 22.1618 74.1249 22.1618C73.1174 22.1618 72.2277 22.0185 71.4557 21.7317C70.691 21.4376 70.0476 21.0368 69.5255 20.5294C69.0109 20.0148 68.6212 19.4119 68.3564 18.7207C68.0991 18.0222 67.9704 17.2721 67.9704 16.4707ZM71.6432 16.4707C71.6432 16.956 71.6873 17.4192 71.7756 17.8604C71.8638 18.2942 72.0035 18.6766 72.1947 19.0075C72.3932 19.3383 72.6505 19.603 72.9668 19.8015C73.2829 19.9927 73.669 20.0883 74.1249 20.0883C74.544 20.0883 74.9079 20.0001 75.2167 19.8236C75.5329 19.6472 75.7903 19.4008 75.9888 19.0846C76.1947 18.7685 76.3491 18.3898 76.452 17.9486C76.555 17.5001 76.6065 17.0075 76.6065 16.4707C76.6065 15.9854 76.5587 15.5258 76.463 15.092C76.3749 14.6509 76.2314 14.2648 76.0329 13.9339C75.8344 13.5957 75.577 13.331 75.2609 13.1398C74.9521 12.9413 74.5733 12.842 74.1249 12.842C73.6763 12.842 73.2939 12.9375 72.9778 13.1288C72.6616 13.3199 72.4042 13.5809 72.2057 13.9118C72.0072 14.2428 71.8638 14.6287 71.7756 15.07C71.6873 15.5111 71.6432 15.978 71.6432 16.4707Z"
		fill="black" />
	<path
		d="M85.0201 7.00724C85.0201 7.24989 84.965 7.46679 84.8547 7.65797C84.7444 7.8418 84.601 7.99617 84.4246 8.12125C84.2481 8.24624 84.0422 8.34177 83.8069 8.40793C83.579 8.46676 83.3437 8.49621 83.101 8.49621C82.8437 8.49621 82.5974 8.46309 82.3621 8.39692C82.1341 8.33076 81.9319 8.23523 81.7555 8.11014C81.579 7.97781 81.4392 7.81973 81.3363 7.63591C81.2334 7.45209 81.1819 7.24253 81.1819 7.00724C81.1819 6.794 81.2297 6.59915 81.3253 6.42268C81.4282 6.23886 81.5642 6.08077 81.7334 5.94841C81.9025 5.81606 82.1047 5.71312 82.34 5.63959C82.5753 5.56606 82.8326 5.5293 83.1121 5.5293C83.3547 5.5293 83.59 5.56239 83.818 5.62856C84.0533 5.69474 84.2591 5.79032 84.4356 5.91533C84.612 6.04033 84.7518 6.19474 84.8547 6.37856C84.965 6.56239 85.0201 6.77194 85.0201 7.00724ZM84.8547 19.8565C84.8547 20.555 84.7113 21.0918 84.4246 21.4668C84.1451 21.8418 83.6782 22.0293 83.0238 22.0293C82.4062 22.0293 81.9686 21.8418 81.7113 21.4668C81.4614 21.0918 81.3363 20.555 81.3363 19.8565V13.1065C81.3363 12.4079 81.4614 11.8712 81.7113 11.4962C81.9686 11.1213 82.4062 10.9337 83.0238 10.9337C83.6782 10.9337 84.1451 11.1213 84.4246 11.4962C84.7113 11.8712 84.8547 12.4079 84.8547 13.1065V19.8565Z"
		fill="black" />
	<path
		d="M89.9265 16.4485C89.9265 16.9413 89.9632 17.4007 90.0368 17.8273C90.1176 18.2537 90.25 18.6287 90.4338 18.9523C90.625 19.2684 90.875 19.5184 91.1838 19.7022C91.4999 19.8861 91.8897 19.978 92.3529 19.978C92.7794 19.978 93.136 19.8898 93.423 19.7133C93.7167 19.5295 93.952 19.2794 94.1289 18.9633C94.3049 18.6397 94.4301 18.2611 94.5035 17.8273C94.5845 17.3934 94.6249 16.9228 94.6249 16.4155C94.6249 16.0111 94.5957 15.5993 94.5365 15.1802C94.4781 14.7537 94.368 14.3677 94.2061 14.0221C94.0442 13.6765 93.8202 13.3934 93.5332 13.1728C93.2461 12.9523 92.8715 12.842 92.4081 12.842C91.9448 12.842 91.5514 12.9155 91.2279 13.0626C90.9117 13.2096 90.6544 13.4339 90.4559 13.7353C90.2646 14.0368 90.1286 14.4155 90.0478 14.8713C89.9669 15.3199 89.9265 15.8456 89.9265 16.4485ZM89.9155 13.1066C90.0993 12.717 90.3346 12.375 90.6214 12.0809C90.908 11.7868 91.2243 11.5405 91.5699 11.3419C91.9155 11.1434 92.2757 10.9963 92.6507 10.9008C93.0334 10.7978 93.4118 10.7463 93.7863 10.7463C94.463 10.7463 95.0739 10.8971 95.6179 11.1986C96.1619 11.5 96.6249 11.9118 97.007 12.4339C97.3967 12.9486 97.695 13.5589 97.9012 14.2647C98.1063 14.9633 98.2099 15.7133 98.2099 16.5147C98.2099 17.3456 98.0988 18.1066 97.8786 18.7978C97.6659 19.489 97.36 20.0846 96.9628 20.5845C96.5732 21.0773 96.1026 21.4632 95.551 21.7427C95.007 22.0221 94.4009 22.1618 93.7318 22.1618C92.9082 22.1618 92.1728 21.9706 91.5257 21.5882C90.8787 21.2059 90.3419 20.6692 89.9155 19.978V23.9486C89.9155 24.647 89.772 25.1839 89.4853 25.5589C89.2058 25.9338 88.739 26.1214 88.0845 26.1214C87.4669 26.1214 87.0294 25.9338 86.772 25.5589C86.5221 25.1839 86.3971 24.647 86.3971 23.9486V13.1066C86.3971 12.4081 86.5221 11.8713 86.772 11.4964C87.0294 11.1214 87.4669 10.9338 88.0845 10.9338C88.739 10.9338 89.2058 11.1214 89.4853 11.4964C89.772 11.8713 89.9155 12.4081 89.9155 13.1066Z"
		fill="black" />
	<path
		d="M102.09 13.8898C102.09 14.1765 102.216 14.4008 102.465 14.5626C102.715 14.717 103.061 14.8457 103.502 14.9486C103.921 15.0442 104.351 15.1361 104.792 15.2243C105.234 15.3126 105.664 15.4156 106.083 15.5332C106.502 15.6434 106.895 15.7758 107.263 15.9302C107.63 16.0846 107.954 16.2795 108.233 16.5148C108.513 16.7427 108.733 17.0222 108.895 17.353C109.057 17.6766 109.138 18.0663 109.138 18.5221C109.138 19.0957 109.02 19.6067 108.785 20.0552C108.55 20.4964 108.216 20.8714 107.782 21.1803C107.355 21.4891 106.844 21.728 106.248 21.8972C105.653 22.0663 104.995 22.1545 104.274 22.1618C103.591 22.1618 102.932 22.1178 102.299 22.0295C101.668 21.9486 101.105 21.8199 100.612 21.6434C100.127 21.467 99.7374 21.2501 99.4428 20.9927C99.1492 20.728 99.0023 20.4192 99.0023 20.0663C99.0023 19.7574 99.1012 19.5184 99.2998 19.3493C99.4983 19.1803 99.7515 19.0957 100.061 19.0957C100.179 19.0957 100.318 19.1177 100.48 19.1618C100.642 19.206 100.818 19.2611 101.009 19.3273C101.2 19.3934 101.402 19.467 101.616 19.5479C101.836 19.6214 102.064 19.6876 102.299 19.7464C102.594 19.8273 102.895 19.8935 103.204 19.945C103.52 19.989 103.844 20.0111 104.175 20.0111C104.38 20.0111 104.583 19.9927 104.781 19.956C104.98 19.9118 105.157 19.8494 105.311 19.7685C105.473 19.6802 105.605 19.5699 105.708 19.4376C105.811 19.3053 105.873 19.1435 105.896 18.9523C105.917 18.9082 105.936 18.864 105.95 18.8199C105.965 18.7758 105.973 18.7244 105.973 18.6655C105.973 18.4596 105.877 18.2758 105.686 18.114C105.502 17.9523 105.24 17.8236 104.903 17.728C104.336 17.5957 103.796 17.4744 103.281 17.3641C102.767 17.2538 102.289 17.1361 101.848 17.0111C101.414 16.8862 101.016 16.7427 100.656 16.5809C100.303 16.4192 100.002 16.2206 99.7515 15.9854C99.5096 15.7501 99.3176 15.467 99.1783 15.1361C99.0456 14.8052 98.9798 14.4045 98.9798 13.9339C98.9798 13.4266 99.0936 12.9743 99.3214 12.5773C99.5567 12.1728 99.8918 11.8347 100.326 11.5626C100.76 11.2905 101.285 11.0846 101.903 10.945C102.52 10.7979 103.219 10.7244 103.998 10.7244C105.395 10.7244 106.457 10.8935 107.186 11.2317C107.921 11.5626 108.289 11.9964 108.289 12.5332C108.289 12.8347 108.189 13.0663 107.991 13.228C107.792 13.3824 107.553 13.4596 107.274 13.4596C107.127 13.4596 106.972 13.4339 106.81 13.3824C106.656 13.3236 106.469 13.2611 106.248 13.195C106.027 13.1214 105.763 13.059 105.454 13.0075C105.153 12.9486 104.777 12.9192 104.329 12.9192C103.991 12.9192 103.682 12.9339 103.402 12.9633C103.13 12.9927 102.895 13.0442 102.696 13.1177C102.505 13.1913 102.355 13.2905 102.245 13.4156C102.141 13.5406 102.09 13.6986 102.09 13.8898Z"
		fill="black" />
	<path
		d="M113.614 17.9375C113.614 18.2831 113.658 18.5846 113.747 18.842C113.842 19.0993 113.971 19.3162 114.133 19.4927C114.295 19.6618 114.482 19.7905 114.695 19.8787C114.916 19.9596 115.151 20.0001 115.4 20.0001C115.695 20.0001 115.978 19.956 116.25 19.8677C116.522 19.7795 116.761 19.6434 116.968 19.4596C117.18 19.2758 117.35 19.0441 117.475 18.7647C117.599 18.4854 117.662 18.1581 117.662 17.7832V13.1066C117.662 12.4081 117.787 11.8713 118.037 11.4964C118.295 11.1214 118.732 10.9338 119.35 10.9338C120.004 10.9338 120.471 11.1214 120.75 11.4964C121.037 11.8713 121.18 12.4081 121.18 13.1066V19.8567C121.18 20.5552 121.037 21.092 120.75 21.4669C120.471 21.842 120.004 22.0295 119.35 22.0295C118.732 22.0295 118.295 21.842 118.037 21.4669C117.787 21.092 117.662 20.5552 117.662 19.8567C117.508 20.1949 117.305 20.5037 117.055 20.7832C116.812 21.0626 116.526 21.3052 116.195 21.5111C115.871 21.7096 115.512 21.864 115.114 21.9743C114.725 22.0846 114.301 22.1398 113.846 22.1398C113.353 22.1398 112.879 22.0552 112.423 21.8861C111.975 21.7096 111.577 21.4522 111.232 21.114C110.887 20.7685 110.611 20.3419 110.405 19.8346C110.199 19.3272 110.096 18.7353 110.096 18.0588V13.1066C110.096 12.4081 110.221 11.8713 110.471 11.4964C110.728 11.1214 111.165 10.9338 111.784 10.9338C112.438 10.9338 112.904 11.1214 113.184 11.4964C113.471 11.8713 113.614 12.4081 113.614 13.1066V17.9375Z"
		fill="black" />
	<path
		d="M122.777 13.1066C122.777 12.4081 122.903 11.8713 123.153 11.4964C123.41 11.1214 123.848 10.9338 124.465 10.9338C125.12 10.9338 125.587 11.1214 125.866 11.4964C126.152 11.8713 126.296 12.4081 126.296 13.1066C126.443 12.7537 126.642 12.4339 126.892 12.1471C127.149 11.853 127.44 11.603 127.763 11.3971C128.094 11.1912 128.451 11.0331 128.833 10.9228C129.215 10.8052 129.612 10.7463 130.024 10.7463C130.407 10.7463 130.781 10.7978 131.149 10.9008C131.524 10.9963 131.87 11.1544 132.186 11.375C132.509 11.5882 132.792 11.8603 133.035 12.1912C133.278 12.5221 133.465 12.9191 133.598 13.3824C133.826 12.8898 134.094 12.4743 134.403 12.1361C134.712 11.7978 135.047 11.5257 135.406 11.3199C135.767 11.114 136.142 10.9669 136.532 10.8787C136.929 10.7905 137.325 10.7463 137.722 10.7463C138.193 10.7463 138.642 10.831 139.068 11C139.502 11.1691 139.88 11.4265 140.204 11.7721C140.536 12.1103 140.796 12.5405 140.987 13.0626C141.186 13.5772 141.285 14.1802 141.285 14.8713V19.8566C141.285 20.5552 141.142 21.0919 140.855 21.4669C140.576 21.842 140.108 22.0294 139.454 22.0294C138.837 22.0294 138.399 21.842 138.142 21.4669C137.892 21.0919 137.767 20.5552 137.767 19.8566V15.0258C137.767 14.6949 137.722 14.4007 137.635 14.1434C137.546 13.8787 137.421 13.6581 137.259 13.4817C137.105 13.2979 136.921 13.1618 136.708 13.0736C136.495 12.978 136.266 12.9301 136.024 12.9301C135.722 12.9301 135.436 12.978 135.164 13.0736C134.892 13.1691 134.653 13.3162 134.447 13.5147C134.248 13.7133 134.087 13.9669 133.961 14.2757C133.844 14.5845 133.785 14.9559 133.785 15.3897V19.8566C133.785 20.5552 133.641 21.0919 133.355 21.4669C133.076 21.842 132.609 22.0294 131.954 22.0294C131.336 22.0294 130.899 21.842 130.642 21.4669C130.392 21.0919 130.266 20.5552 130.266 19.8566V15.2353C130.266 14.478 130.108 13.9045 129.793 13.5147C129.483 13.1251 129.061 12.9301 128.524 12.9301C128.208 12.9301 127.913 12.9816 127.641 13.0846C127.369 13.1876 127.134 13.3382 126.936 13.5368C126.737 13.7353 126.579 13.9816 126.461 14.2757C126.351 14.5699 126.296 14.9081 126.296 15.2904V19.8566C126.296 20.5552 126.152 21.0919 125.866 21.4669C125.587 21.842 125.12 22.0294 124.465 22.0294C123.848 22.0294 123.41 21.842 123.153 21.4669C122.903 21.0919 122.777 20.5552 122.777 19.8566V13.1066Z"
		fill="black" />
	<path
		d="M14.7294 20.1471C11.6106 20.1471 9.08234 17.6189 9.08234 14.5001C9.08234 11.3813 11.6106 8.85303 14.7294 8.85303C17.8482 8.85303 20.3765 11.3813 20.3765 14.5001C20.3765 17.6189 17.8482 20.1471 14.7294 20.1471Z"
		fill="#2A2A2A" />
	<path
		d="M3.78938 16.429C2.15291 16.7176 1.0312 18.2984 1.65939 19.8368C2.53641 21.9846 3.93559 23.8982 5.74953 25.3935C8.34333 27.5316 11.6149 28.6741 14.9758 28.6155C18.3367 28.5568 21.5665 27.3008 24.0841 25.0734C25.8447 23.5158 27.1763 21.5545 27.9779 19.3774C28.552 17.818 27.3757 16.2773 25.7302 16.0461C24.0847 15.8148 22.6072 17.0126 21.7944 18.462C21.3539 19.2476 20.7819 19.9603 20.0967 20.5665C18.6522 21.8446 16.7991 22.5651 14.8709 22.5988C12.9425 22.6324 11.0654 21.977 9.57721 20.7502C8.87123 20.1682 8.27481 19.4759 7.80706 18.7061C6.9442 17.286 5.42585 16.1405 3.78938 16.429Z"
		fill="#EF6767" />
	<path
		d="M28.7379 16.2642C28.81 15.6862 28.847 15.0974 28.847 14.5C28.847 6.70301 22.5264 0.382324 14.7294 0.382324C6.93244 0.382324 0.611755 6.70301 0.611755 14.5C0.611755 15.2667 0.672885 16.0192 0.790541 16.7529C1.43899 15.8651 2.45106 15.2315 3.54424 15.0387C4.727 14.8301 5.80195 15.117 6.71083 15.6532C6.65714 15.2765 6.62935 14.8915 6.62935 14.5C6.62935 10.0265 10.2559 6.39992 14.7294 6.39992C19.2029 6.39992 22.8295 10.0265 22.8295 14.5C22.8295 14.7949 22.8136 15.0862 22.783 15.373C23.6726 14.8052 24.7371 14.4808 25.9267 14.648C27.0256 14.8025 28.0588 15.4001 28.7379 16.2642Z"
		fill="#6EC11C" />
</svg>