<svg width="155" height="29" viewBox="0 0 155 29" fill="none" xmlns="http://www.w3.org/2000/svg">
	<g clip-path="url(#clip0_1_85)">
		<path
			d="M14.2706 28.5C22.0028 28.5 28.2706 22.2322 28.2706 14.5V4.7C28.2706 3.58609 27.8281 2.5178 27.0405 1.73015C26.2528 0.942499 25.1845 0.5 24.0706 0.5L14.9706 0.5V6.6418C14.9706 8.0432 15.056 9.495 15.791 10.6878C16.3172 11.5426 17.0211 12.2743 17.855 12.8332C18.6888 13.392 19.6331 13.765 20.6238 13.9267L20.8919 13.9701C21.0025 14.0079 21.0984 14.0793 21.1663 14.1743C21.2343 14.2693 21.2708 14.3832 21.2708 14.5C21.2708 14.6168 21.2343 14.7307 21.1663 14.8257C21.0984 14.9207 21.0025 14.9921 20.8919 15.0299L20.6238 15.0733C19.1763 15.3098 17.8397 15.9949 16.8026 17.032C15.7655 18.0691 15.0804 19.4057 14.8439 20.8532L14.8005 21.1213C14.7627 21.2318 14.6914 21.3278 14.5963 21.3957C14.5013 21.4636 14.3874 21.5002 14.2706 21.5002C14.1538 21.5002 14.0399 21.4636 13.9449 21.3957C13.8499 21.3278 13.7785 21.2318 13.7407 21.1213L13.6973 20.8532C13.5355 19.8625 13.1626 18.9182 12.6037 18.0844C12.0449 17.2505 11.3132 16.5466 10.4584 16.0204C9.26563 15.2854 7.81383 15.2 6.41243 15.2H0.28743C0.65353 22.6067 6.77363 28.5 14.2706 28.5Z"
			fill="#4058D5" />
		<path
			d="M0.27063 13.8H6.41243C7.81383 13.8 9.26563 13.7146 10.4584 12.9796C11.3908 12.4051 12.1757 11.6202 12.7502 10.6878C13.4852 9.495 13.5706 8.0432 13.5706 6.6418V0.5H4.47063C3.35672 0.5 2.28843 0.942499 1.50078 1.73015C0.713129 2.5178 0.27063 3.58609 0.27063 4.7L0.27063 13.8ZM32.7891 1.9C32.7891 2.2713 32.6416 2.6274 32.3791 2.88995C32.1165 3.1525 31.7604 3.3 31.3891 3.3C31.0178 3.3 30.6617 3.1525 30.3992 2.88995C30.1366 2.6274 29.9891 2.2713 29.9891 1.9C29.9891 1.5287 30.1366 1.1726 30.3992 0.91005C30.6617 0.6475 31.0178 0.5 31.3891 0.5C31.7604 0.5 32.1165 0.6475 32.3791 0.91005C32.6416 1.1726 32.7891 1.5287 32.7891 1.9ZM148.468 8.9728C152.382 8.9728 154.271 11.7063 154.271 14.8724V20.8189H150.175V15.578C150.175 14.143 149.651 12.9586 148.15 12.9586C146.648 12.9586 146.148 14.143 146.148 15.578V20.8182H142.052V15.578C142.052 14.143 141.552 12.9586 140.049 12.9586C138.548 12.9586 138.024 14.143 138.024 15.578V20.8182H133.929V14.8717C133.929 11.7056 135.817 8.9721 139.731 8.9721C141.87 8.9721 143.417 9.8149 144.123 11.2044C144.873 9.8149 146.512 8.9714 148.468 8.9714V8.9728ZM126.57 17.174C127.889 17.174 128.458 15.9665 128.458 14.5308V9.4278H132.553V15.032C132.553 18.3808 130.597 21.1605 126.57 21.1605C122.542 21.1605 120.585 18.3815 120.585 15.032V9.4278H124.681V14.5308C124.681 15.9658 125.249 17.174 126.57 17.174ZM114.563 21.1829C111.992 21.1829 110.331 20.2946 109.352 18.5635L112.311 16.9003C112.72 17.629 113.334 17.9937 114.358 17.9937C115.2 17.9937 115.587 17.6976 115.587 17.3329C115.587 15.9434 109.58 17.356 109.58 12.9369C109.58 10.7949 111.4 9.0638 114.495 9.0638C117.202 9.0638 118.681 10.3847 119.341 11.6608L116.383 13.3464C116.133 12.6632 115.359 12.253 114.586 12.253C113.994 12.253 113.676 12.5036 113.676 12.8452C113.676 14.2578 119.682 12.9593 119.682 17.2419C119.682 19.6338 117.339 21.1829 114.563 21.1829ZM100.254 26.0584H96.158V15.1006C96.158 11.6146 98.7746 9.0862 102.415 9.0862C105.965 9.0862 108.673 11.7973 108.673 15.1006C108.673 18.7455 106.26 21.1605 102.643 21.1605C101.801 21.1605 100.959 20.9099 100.254 20.5221V26.0584ZM102.415 17.3105C103.712 17.3105 104.577 16.3081 104.577 15.123C104.577 13.9162 103.712 12.9362 102.415 12.9362C101.118 12.9362 100.254 13.9162 100.254 15.1237C100.254 16.3081 101.118 17.3105 102.415 17.3105ZM92.0553 8.221C90.7127 8.221 89.5983 7.1045 89.5983 5.7605C89.5983 4.4165 90.7127 3.3 92.0553 3.3C93.3979 3.3 94.513 4.4165 94.513 5.7605C94.513 7.1045 93.3979 8.221 92.0553 8.221ZM90.0078 9.4278H94.1035V20.8189H90.0078V9.4278ZM82.1496 21.1605C78.5999 21.1605 75.8923 18.427 75.8923 15.1006C75.8923 11.7973 78.5999 9.0638 82.1496 9.0638C85.6993 9.0638 88.4069 11.7973 88.4069 15.1006C88.4069 18.427 85.6993 21.1605 82.1496 21.1605ZM82.1496 17.3105C83.4467 17.3105 84.3112 16.3081 84.3112 15.123C84.3112 13.9162 83.4467 12.9138 82.1496 12.9138C80.8525 12.9138 79.988 13.9162 79.988 15.123C79.988 16.3081 80.8525 17.3105 82.1496 17.3105ZM68.1587 26.4C65.3377 26.4 63.2895 25.147 62.243 22.914L65.6331 21.0919C65.9971 21.8668 66.6796 22.6641 68.0901 22.6641C69.5699 22.6641 70.5478 21.7296 70.6619 20.0895C70.1159 20.5683 69.2507 20.9323 67.9543 20.9323C64.791 20.9323 62.2423 18.4949 62.2423 15.0775C62.2423 11.7749 64.9506 9.0862 68.5003 9.0862C72.141 9.0862 74.7576 11.6153 74.7576 15.1006V19.6114C74.7576 23.712 71.9128 26.4 68.1587 26.4ZM68.4317 17.083C69.6602 17.083 70.5933 16.2395 70.5933 14.9865C70.5933 13.7566 69.6609 12.9362 68.4317 12.9362C67.2256 12.9362 66.2701 13.7566 66.2701 14.9872C66.2701 16.2402 67.2256 17.0823 68.4317 17.0823V17.083ZM55.2955 21.1605C51.7458 21.1605 49.0375 18.427 49.0375 15.1006C49.0375 11.7973 51.7458 9.0638 55.2955 9.0638C58.8445 9.0638 61.5528 11.7973 61.5528 15.1006C61.5528 18.427 58.8452 21.1605 55.2955 21.1605ZM55.2955 17.3105C56.5926 17.3105 57.4571 16.3081 57.4571 15.123C57.4571 13.9162 56.5926 12.9138 55.2955 12.9138C53.9984 12.9138 53.1339 13.9162 53.1339 15.123C53.1339 16.3081 53.9984 17.3105 55.2955 17.3105ZM41.5797 5.442V16.9458H48.3606V20.8189H41.0106C38.4171 20.8189 37.3706 19.4518 37.3706 17.2874V5.442H41.5797Z"
			fill="black" />
	</g>
	<defs>
		<clipPath id="clip0_1_85">
			<rect width="154" height="28" fill="white" transform="translate(0.27063 0.5)" />
		</clipPath>
	</defs>
</svg>