<svg width="133" height="35" viewBox="0 0 133 35" fill="none" xmlns="http://www.w3.org/2000/svg">
	<path
		d="M30.7906 12.25C31.1506 12.25 31.2706 12.38 31.2706 12.73V20.65H35.3406C35.6906 20.65 35.8206 20.78 35.8206 21.13V21.83C35.8206 22.18 35.6906 22.31 35.3406 22.31H29.9806C29.6306 22.31 29.4906 22.18 29.4906 21.83V12.73C29.4906 12.38 29.6306 12.25 29.9806 12.25H30.7906Z"
		fill="black" />
	<path
		d="M39.3706 15.74C39.3706 13.43 40.8306 12.04 43.3706 12.04C45.9106 12.04 47.3706 13.43 47.3706 15.74V18.82C47.3706 21.13 45.9006 22.52 43.3706 22.52C40.8406 22.52 39.3706 21.13 39.3706 18.82V15.74ZM45.6906 15.74C45.6906 14.44 44.8806 13.74 43.4206 13.74C41.9606 13.74 41.1606 14.45 41.1606 15.74V18.84C41.1606 20.15 41.9606 20.84 43.4206 20.84C44.8806 20.84 45.6906 20.12 45.6906 18.84V15.74Z"
		fill="black" />
	<path
		d="M59.2806 16.8C59.6706 16.8 59.7606 16.93 59.7606 17.28V19.18C59.7712 19.6275 59.6815 20.0718 59.4981 20.4801C59.3146 20.8885 59.0422 21.2506 58.7006 21.54C57.8523 22.2155 56.7827 22.5506 55.7006 22.48C53.1106 22.48 51.7006 21.09 51.7006 18.78V15.68C51.7006 13.4 53.1606 12 55.7006 12C57.7006 12 59.0006 12.79 59.5506 14.37C59.5814 14.4294 59.5979 14.4951 59.5988 14.5619C59.5997 14.6288 59.585 14.695 59.5559 14.7551C59.5268 14.8153 59.484 14.8679 59.431 14.9087C59.378 14.9494 59.3162 14.9773 59.2506 14.99L58.4706 15.26C58.1306 15.38 57.9906 15.31 57.8706 14.96C57.7049 14.5329 57.4016 14.1731 57.0086 13.9377C56.6156 13.7023 56.1554 13.6045 55.7006 13.66C54.2306 13.66 53.4306 14.37 53.4306 15.66V18.84C53.4306 20.15 54.2406 20.84 55.7006 20.84C57.1606 20.84 58.0606 20.17 58.0606 19.19V18.45H55.8906C55.5306 18.45 55.4006 18.31 55.4006 17.96V17.28C55.4006 16.93 55.5306 16.8 55.8906 16.8H59.2806Z"
		fill="black" />
	<path
		d="M63.8906 15.74C63.8906 13.43 65.3506 12.04 67.8906 12.04C70.4306 12.04 71.8906 13.43 71.8906 15.74V18.82C71.8906 21.13 70.4206 22.52 67.8906 22.52C65.3606 22.52 63.8906 21.13 63.8906 18.82V15.74ZM70.2006 15.74C70.2006 14.44 69.3906 13.74 67.9406 13.74C66.4906 13.74 65.6706 14.45 65.6706 15.74V18.84C65.6706 20.15 66.4806 20.84 67.9406 20.84C69.4006 20.84 70.2006 20.12 70.2006 18.84V15.74Z"
		fill="black" />
	<path
		d="M76.6006 12.54C76.6006 12.32 76.6706 12.25 76.8906 12.25H77.3506C77.5706 12.25 77.6206 12.32 77.6206 12.54V22.02C77.6206 22.24 77.6206 22.31 77.3506 22.31H76.8906C76.6706 22.31 76.6006 22.24 76.6006 22.02V12.54Z"
		fill="black" />
	<path
		d="M86.7306 12.25C87.5634 12.25 88.362 12.5808 88.9509 13.1697C89.5398 13.7585 89.8706 14.5572 89.8706 15.39C89.8706 16.2228 89.5398 17.0215 88.9509 17.6103C88.362 18.1992 87.5634 18.53 86.7306 18.53H83.7306V22.02C83.7306 22.24 83.6806 22.31 83.4706 22.31H83.0006C82.7906 22.31 82.7106 22.24 82.7106 22.02V12.54C82.7106 12.32 82.7906 12.25 83.0006 12.25H86.7306ZM86.6406 17.54C86.9269 17.54 87.2104 17.4836 87.4749 17.3741C87.7393 17.2645 87.9797 17.1039 88.1821 16.9015C88.3845 16.6991 88.5451 16.4587 88.6547 16.1943C88.7642 15.9298 88.8206 15.6463 88.8206 15.36C88.8206 15.0737 88.7642 14.7902 88.6547 14.5257C88.5451 14.2613 88.3845 14.0209 88.1821 13.8185C87.9797 13.6161 87.7393 13.4555 87.4749 13.3459C87.2104 13.2364 86.9269 13.18 86.6406 13.18H83.6406V17.54H86.6406Z"
		fill="black" />
	<path
		d="M97.6806 12.0501C98.4527 11.9649 99.2316 12.131 99.9018 12.5237C100.572 12.9165 101.098 13.5149 101.401 14.2301C101.481 14.3901 101.401 14.5201 101.241 14.6001L100.801 14.8001C100.621 14.8701 100.551 14.8601 100.441 14.6701C100.214 14.1393 99.8245 13.6943 99.3283 13.3995C98.8322 13.1047 98.2551 12.9753 97.6806 13.0301C95.9906 13.0301 95.0706 13.7001 95.0706 14.9001C95.0608 15.2668 95.1839 15.6248 95.4174 15.9078C95.6508 16.1908 95.9787 16.3799 96.3406 16.4401C96.8784 16.6155 97.4361 16.723 98.0006 16.7601C98.6839 16.7965 99.358 16.9347 100.001 17.1701C100.494 17.326 100.918 17.6466 101.202 18.0782C101.486 18.5098 101.613 19.026 101.561 19.5401C101.561 21.4101 100.201 22.5401 97.7006 22.5401C96.8806 22.6339 96.0532 22.4439 95.3563 22.0017C94.6594 21.5596 94.135 20.8919 93.8706 20.1101C93.8529 20.0745 93.8434 20.0354 93.8426 19.9956C93.8418 19.9558 93.8499 19.9164 93.8661 19.8801C93.8823 19.8438 93.9064 19.8115 93.9366 19.7856C93.9667 19.7596 94.0022 19.7407 94.0406 19.7301L94.4806 19.5701C94.5152 19.5559 94.5525 19.5491 94.5899 19.5501C94.6273 19.5511 94.6641 19.5599 94.698 19.5759C94.7318 19.5919 94.762 19.6147 94.7865 19.643C94.8111 19.6713 94.8295 19.7043 94.8406 19.7401C95.0643 20.305 95.4621 20.784 95.9763 21.1077C96.4905 21.4313 97.0945 21.5828 97.7006 21.5401C99.5906 21.5401 100.521 20.8801 100.521 19.5401C100.539 19.1879 100.431 18.8408 100.216 18.5606C100.002 18.2805 99.6951 18.0854 99.3506 18.0101C98.8332 17.8558 98.2996 17.7618 97.7606 17.7301L96.6806 17.5901C96.3426 17.5184 96.0088 17.4282 95.6806 17.3201C95.3564 17.2222 95.0542 17.0626 94.7906 16.8501C94.5253 16.6099 94.3162 16.3143 94.1779 15.9842C94.0397 15.6541 93.9757 15.2977 93.9906 14.9401C94.0606 13.1901 95.3706 12.0501 97.6806 12.0501Z"
		fill="black" />
	<path
		d="M106.951 18.89C106.993 19.5972 107.304 20.2615 107.82 20.7472C108.336 21.2329 109.018 21.5033 109.726 21.5033C110.434 21.5033 111.116 21.2329 111.632 20.7472C112.148 20.2615 112.458 19.5972 112.501 18.89V12.54C112.501 12.32 112.571 12.25 112.791 12.25H113.251C113.471 12.25 113.541 12.32 113.541 12.54V18.88C113.541 21.15 112.201 22.52 109.731 22.52C107.261 22.52 105.921 21.15 105.921 18.88V12.54C105.921 12.32 105.991 12.25 106.201 12.25H106.671C106.881 12.25 106.951 12.32 106.951 12.54V18.89Z"
		fill="black" />
	<path
		d="M127.341 12.25C127.561 12.25 127.631 12.32 127.631 12.54V22.02C127.631 22.24 127.561 22.31 127.341 22.31H126.921C126.711 22.31 126.641 22.24 126.641 22.02V16.25C126.641 15.4105 126.698 14.5719 126.811 13.74H126.751C126.439 14.5007 126.074 15.2391 125.661 15.95L123.511 19.74C123.485 19.8058 123.439 19.862 123.38 19.9013C123.321 19.9405 123.252 19.961 123.181 19.96H122.901C122.829 19.9604 122.759 19.9397 122.698 19.9007C122.638 19.8616 122.59 19.8058 122.561 19.74L120.381 15.91C119.994 15.2093 119.66 14.4806 119.381 13.73H119.321C119.423 14.5695 119.477 15.4143 119.481 16.26V22.02C119.481 22.24 119.411 22.31 119.191 22.31H118.801C118.581 22.31 118.511 22.24 118.511 22.02V12.54C118.511 12.32 118.581 12.25 118.801 12.25H119.161C119.243 12.2424 119.326 12.2603 119.397 12.3015C119.469 12.3427 119.526 12.4051 119.561 12.48L123.061 18.7L126.541 12.54C126.651 12.33 126.711 12.3 126.931 12.3L127.341 12.25Z"
		fill="black" />
	<path
		d="M13.0006 20.79V28.02C13.0006 28.2972 12.8905 28.563 12.6945 28.7589C12.4986 28.9549 12.2328 29.065 11.9556 29.065C11.6785 29.065 11.4127 28.9549 11.2167 28.7589C11.0207 28.563 10.9106 28.2972 10.9106 28.02V20.8C11.2016 21.0125 11.5504 21.1311 11.9106 21.14C12.3032 21.1512 12.6879 21.0277 13.0006 20.79ZM21.9006 18.7C21.6354 18.7 21.381 18.8054 21.1935 18.9929C21.006 19.1804 20.9006 19.4348 20.9006 19.7V20.96C20.9006 21.2372 21.0107 21.503 21.2067 21.6989C21.4026 21.8949 21.6684 22.005 21.9456 22.005C22.2228 22.005 22.4886 21.8949 22.6845 21.6989C22.8805 21.503 22.9906 21.2372 22.9906 20.96V19.75C22.9984 19.6066 22.9752 19.4632 22.9226 19.3296C22.87 19.196 22.7893 19.0752 22.6858 18.9756C22.5824 18.876 22.4587 18.7998 22.3233 18.7522C22.1878 18.7047 22.0436 18.6869 21.9006 18.7ZM8.64063 23.53C8.2808 23.5192 7.93246 23.4008 7.64063 23.19V30.44C7.64063 30.7185 7.75125 30.9856 7.94817 31.1825C8.14508 31.3794 8.41215 31.49 8.69063 31.49C8.96911 31.49 9.23618 31.3794 9.43309 31.1825C9.63001 30.9856 9.74063 30.7185 9.74063 30.44V23.24C9.41408 23.4511 9.02879 23.5527 8.64063 23.53ZM18.6406 16.53C18.5051 16.5232 18.3697 16.5441 18.2425 16.5913C18.1154 16.6385 17.9992 16.7111 17.9009 16.8046C17.8027 16.8982 17.7246 17.0107 17.6712 17.1354C17.6179 17.2601 17.5904 17.3944 17.5906 17.53V23.1C17.5906 23.3785 17.7012 23.6456 17.8981 23.8425C18.0951 24.0394 18.3621 24.15 18.6406 24.15C18.9191 24.15 19.1862 24.0394 19.3831 23.8425C19.58 23.6456 19.6906 23.3785 19.6906 23.1V17.6C19.6986 17.4557 19.6752 17.3114 19.622 17.177C19.5688 17.0426 19.4872 16.9213 19.3826 16.8215C19.278 16.7217 19.1531 16.6457 19.0164 16.5989C18.8797 16.552 18.7344 16.5353 18.5906 16.55L18.6406 16.53ZM15.3206 18.67C14.9439 18.6674 14.5773 18.5487 14.2706 18.33V25.6C14.2706 25.8785 14.3812 26.1456 14.5781 26.3425C14.7751 26.5394 15.0421 26.65 15.3206 26.65C15.5991 26.65 15.8661 26.5394 16.0631 26.3425C16.26 26.1456 16.3706 25.8785 16.3706 25.6V18.34C16.0534 18.5763 15.6661 18.6995 15.2706 18.69L15.3206 18.67ZM6.37063 24.24V3.93C6.368 3.68243 6.2678 3.44591 6.0918 3.27178C5.9158 3.09765 5.67821 2.99999 5.43063 3H5.21063C4.96305 2.99999 4.72546 3.09765 4.54946 3.27178C4.37346 3.44591 4.27326 3.68243 4.27063 3.93V24.24C4.27063 24.4893 4.36967 24.7284 4.54595 24.9047C4.72223 25.081 4.96133 25.18 5.21063 25.18H5.43063C5.67994 25.18 5.91903 25.081 6.09531 24.9047C6.2716 24.7284 6.37063 24.4893 6.37063 24.24ZM8.75063 22.76H8.53063C8.28133 22.76 8.04223 22.661 7.86595 22.4847C7.68967 22.3084 7.59063 22.0693 7.59063 21.82V6.35C7.59327 6.10244 7.69346 5.8659 7.86946 5.69178C8.04546 5.51765 8.28305 5.41999 8.53063 5.42H8.75063C8.99821 5.41999 9.2358 5.51765 9.4118 5.69178C9.5878 5.8659 9.688 6.10244 9.69063 6.35V21.84C9.69063 22.0893 9.59159 22.3284 9.41531 22.5047C9.23903 22.681 8.99993 22.78 8.75063 22.78V22.76ZM12.0606 20.38H11.8306C11.584 20.38 11.3474 20.282 11.173 20.1076C10.9986 19.9332 10.9006 19.6967 10.9006 19.45V8.75C10.8993 8.62703 10.9224 8.50502 10.9685 8.39103C11.0146 8.27704 11.0829 8.17334 11.1694 8.08592C11.2559 7.9985 11.3589 7.9291 11.4724 7.88174C11.5859 7.83438 11.7076 7.80999 11.8306 7.81H12.0606C12.3082 7.81264 12.5447 7.91283 12.7188 8.08883C12.893 8.26483 12.9906 8.50242 12.9906 8.75V19.45C12.9906 19.6967 12.8926 19.9332 12.7182 20.1076C12.5438 20.282 12.3073 20.38 12.0606 20.38ZM15.3706 17.93H15.1606C14.913 17.93 14.6754 17.8324 14.4994 17.6582C14.3234 17.4841 14.2232 17.2476 14.2206 17V11.24C14.2124 11.1116 14.2306 10.9829 14.2742 10.8618C14.3177 10.7408 14.3857 10.6299 14.4738 10.5362C14.5619 10.4424 14.6683 10.3678 14.7865 10.3168C14.9046 10.2659 15.0319 10.2397 15.1606 10.24H15.3806C15.6299 10.24 15.869 10.339 16.0453 10.5153C16.2216 10.6916 16.3206 10.9307 16.3206 11.18V16.98C16.3219 17.1043 16.2986 17.2276 16.2519 17.3428C16.2053 17.458 16.1363 17.5628 16.0488 17.6512C15.9614 17.7395 15.8574 17.8096 15.7426 17.8575C15.6279 17.9054 15.5049 17.93 15.3806 17.93H15.3706ZM18.6906 15.78H18.4706C18.2213 15.78 17.9822 15.681 17.8059 15.5047C17.6296 15.3284 17.5306 15.0893 17.5306 14.84V13.35C17.5332 13.1024 17.6334 12.8659 17.8094 12.6918C17.9854 12.5176 18.223 12.42 18.4706 12.42H18.6906C18.9382 12.42 19.1758 12.5176 19.3518 12.6918C19.5278 12.8659 19.628 13.1024 19.6306 13.35V14.84C19.6306 15.0876 19.533 15.3252 19.3588 15.5012C19.1847 15.6772 18.9482 15.7774 18.7006 15.78H18.6906Z"
		fill="#74C326" />
</svg>