<svg width="119" height="24" viewBox="0 0 119 24" fill="none" xmlns="http://www.w3.org/2000/svg">
<path d="M11.5508 24C5.06952 24 0 18.738 0 11.9679C0 5.22995 5.06952 0 11.5508 0C17.615 0 22.3636 4.04278 23.1658 9.94652H18C17.4545 6.64171 14.8877 4.36364 11.615 4.36364C7.66845 4.36364 5.00535 7.47594 5.00535 11.9679C5.00535 16.492 7.66845 19.6364 11.615 19.6364C14.8877 19.6364 17.4225 17.3262 18 14.0214H23.1658C22.3636 19.9893 17.615 24 11.5508 24Z" fill="black"/>
<path d="M33.7583 6.06417C25.0631 6.06417 25.0631 9.97861 25.0631 14.9519C25.0631 19.9572 28.785 23.8396 33.7583 23.8396C38.7315 23.8396 42.4535 19.9572 42.4535 14.9519C42.4535 9.97861 42.4535 6.06417 33.7583 6.06417ZM33.7583 10.0107C37.8652 10.0107 37.8652 11.7754 37.8652 14.9519C37.8652 18.1283 35.9722 19.861 33.7583 19.861C31.5444 19.861 29.6513 18.1283 29.6513 14.9519C29.6513 11.7754 29.6513 10.0107 33.7583 10.0107Z" fill="black"/>
<path d="M58.9143 23.5187L55.6737 12.385L52.4652 23.5187H48.0053L43.1283 6.38503H47.4598L50.3796 17.2299L53.524 6.38503H57.9197L60.9678 17.2299L63.8555 6.38503H68.2513L63.3422 23.5187H58.9143Z" fill="black"/>
<path d="M77.6252 23.8396C72.652 23.8396 68.9301 19.9251 68.9301 14.9519C68.9301 9.94652 68.9301 6.06417 77.6252 6.06417C86.3204 6.06417 86.3204 9.94652 86.3204 14.9519C86.3204 19.9251 82.5985 23.8396 77.6252 23.8396ZM77.6252 19.893C79.8391 19.893 81.7322 18.1283 81.7322 14.9519C81.7322 11.7754 81.7322 10.0428 77.6252 10.0428C73.5183 10.0428 73.5183 11.7754 73.5183 14.9519C73.5183 18.1283 75.4113 19.893 77.6252 19.893Z" fill="black"/>
<path d="M93.6264 15.2086V23.5187H89.1665V6.38503H93.2735V9.68984C94.5248 7.50802 97.1879 6.19251 99.9473 6.19251V10.8128C96.1612 10.5241 93.6264 11.4225 93.6264 15.2086Z" fill="black"/>
<path d="M106.724 23.5187H102.264V0.481283H106.724V13.6364L112.981 6.38503H118.114L111.023 14.5989L118.948 23.5187H113.269L106.724 15.5615V23.5187Z" fill="black"/>
</svg>
