<svg width="46" height="36" viewBox="0 0 46 36" fill="none" xmlns="http://www.w3.org/2000/svg">
<path d="M41.1871 15.7031C41.2842 16.4648 41.3331 17.232 41.3333 17.9999C41.3361 21.3633 40.3958 24.66 38.6193 27.5158C36.8427 30.3716 34.3011 32.6721 31.2829 34.1561C28.2647 35.6401 24.8909 36.2482 21.5445 35.9113C18.1981 35.5743 15.0132 34.3059 12.3514 32.2499C17.0746 31.0949 22.6302 28.7006 27.8089 25.7249C33.3289 22.5543 37.9883 19.0237 41.1871 15.7031ZM45.2914 5.37745C43.8571 2.90432 40.0714 2.34745 34.3227 3.7537C31.6612 1.69577 28.4759 0.425526 25.1287 0.0872558C21.7815 -0.251014 18.4065 0.356252 15.3871 1.84007C12.3677 3.32389 9.82495 5.62478 8.04776 8.48135C6.27056 11.3379 5.33013 14.6357 5.3333 17.9999C5.33354 18.7716 5.38239 19.5425 5.47955 20.3081C0.28768 25.6874 0.36268 28.8749 1.37705 30.6224C2.3333 32.2799 4.3283 32.9999 6.9533 32.9999C8.77584 32.9622 10.5876 32.7105 12.3514 32.2499C11.3843 31.5023 10.4948 30.6593 9.69643 29.7337C6.45456 30.2737 4.44643 29.9212 3.97205 29.1168C3.6983 28.6462 3.85018 27.7593 4.3883 26.6793C4.92039 25.6678 5.56715 24.721 6.31581 23.8574C6.31668 23.8519 6.31668 23.8462 6.31581 23.8406V23.8556C7.05993 26.0086 8.20511 28.0012 9.69081 29.7281C13.6171 29.0737 19.3452 27.1199 26.3089 23.1187C31.5833 20.0981 37.2083 15.8756 40.3564 12.1537C39.6151 9.99768 38.4697 8.00272 36.9814 6.27557L36.9571 6.24745C36.9571 6.25682 36.9739 6.26432 36.9814 6.27557C39.6458 5.83495 42.1133 5.8687 42.7002 6.88307C42.8727 7.17744 42.8877 7.61807 42.7283 8.19557C42.4114 9.37869 41.5677 10.7324 40.3602 12.1574C40.7572 13.3092 41.0355 14.4985 41.1908 15.7068C43.5346 13.2693 45.0946 10.9537 45.6252 8.97182C45.9889 7.59557 45.8783 6.38807 45.2914 5.37745Z" fill="#3139FB"/>
</svg>
