<svg width="65" height="65" viewBox="0 0 65 65" fill="none" xmlns="http://www.w3.org/2000/svg">
<g clip-path="url(#clip0_34_1192)">
<path d="M11.1187 35.0928C10.7443 34.718 10.5339 34.21 10.5337 33.6803V10.5078H33.7062C34.2359 10.5081 34.7439 10.7184 35.1187 11.0928L59.9487 35.9228C60.3235 36.2978 60.534 36.8064 60.534 37.3366C60.534 37.8668 60.3235 38.3753 59.9487 38.7503L38.7837 59.9228C38.4087 60.2976 37.9001 60.5081 37.3699 60.5081C36.8397 60.5081 36.3312 60.2976 35.9562 59.9228L11.1187 35.0928Z" stroke="white" stroke-width="3" stroke-linecap="round" stroke-linejoin="round"/>
<path d="M21.5337 24.5078C23.1905 24.5078 24.5337 23.1647 24.5337 21.5078C24.5337 19.851 23.1905 18.5078 21.5337 18.5078C19.8768 18.5078 18.5337 19.851 18.5337 21.5078C18.5337 23.1647 19.8768 24.5078 21.5337 24.5078Z" fill="white"/>
</g>
<defs>
<clipPath id="clip0_34_1192">
<rect width="64" height="64" fill="white" transform="translate(0.533691 0.507812)"/>
</clipPath>
</defs>
</svg>
