<svg width="65" height="65" viewBox="0 0 65 65" fill="none" xmlns="http://www.w3.org/2000/svg">
<g clip-path="url(#clip0_43_2997)">
<path d="M41.0659 32.4765L50.0109 37.859C50.2398 38.0002 50.5053 38.0707 50.7741 38.0615C51.0429 38.0523 51.303 37.9639 51.5218 37.8074C51.7405 37.6509 51.9081 37.4332 52.0036 37.1818C52.0991 36.9303 52.1181 36.6563 52.0584 36.394L49.6259 26.3465L57.5859 19.6265C57.7904 19.4541 57.939 19.2247 58.0124 18.9674C58.0859 18.7102 58.081 18.4369 57.9983 18.1825C57.9157 17.928 57.759 17.704 57.5484 17.5391C57.3377 17.3742 57.0827 17.2758 56.8159 17.2565L46.3684 16.429L42.3434 6.89403C42.2369 6.64691 42.0603 6.4364 41.8355 6.28849C41.6107 6.14059 41.3475 6.06177 41.0784 6.06177C40.8093 6.06177 40.5461 6.14059 40.3213 6.28849C40.0965 6.4364 39.9199 6.64691 39.8134 6.89403L35.7884 16.429L25.3409 17.2565C25.073 17.2735 24.8164 17.3703 24.6039 17.5343C24.3915 17.6984 24.233 17.9223 24.1489 18.1771C24.0647 18.432 24.0587 18.7062 24.1317 18.9645C24.2047 19.2228 24.3533 19.4534 24.5584 19.6265L32.5184 26.3465L30.0659 36.394C30.0061 36.6563 30.0252 36.9303 30.1207 37.1818C30.2161 37.4332 30.3837 37.6509 30.6025 37.8074C30.8212 37.9639 31.0813 38.0523 31.3501 38.0615C31.6189 38.0707 31.8845 38.0002 32.1134 37.859L41.0659 32.4765Z" stroke="white" stroke-width="3" stroke-linecap="round" stroke-linejoin="round"/>
<path d="M20.6779 29.449L6.06543 44.0615" stroke="white" stroke-width="3" stroke-linecap="round" stroke-linejoin="round"/>
<path d="M23.3804 44.7466L10.0654 58.0616" stroke="white" stroke-width="3" stroke-linecap="round" stroke-linejoin="round"/>
<path d="M41.6354 44.4915L28.0654 58.0615" stroke="white" stroke-width="3" stroke-linecap="round" stroke-linejoin="round"/>
</g>
<defs>
<clipPath id="clip0_43_2997">
<rect width="64" height="64" fill="white" transform="translate(0.0654297 0.0615234)"/>
</clipPath>
</defs>
</svg>
