<svg width="56" height="40" viewBox="0 0 56 40" fill="none" xmlns="http://www.w3.org/2000/svg">
<path d="M2 36V4C2 3.46957 2.21071 2.96086 2.58579 2.58579C2.96086 2.21071 3.46957 2 4 2H52C52.5304 2 53.0391 2.21071 53.4142 2.58579C53.7893 2.96086 54 3.46957 54 4V36C54 36.5304 53.7893 37.0391 53.4142 37.4142C53.0391 37.7893 52.5304 38 52 38H36.8275C36.2978 37.9998 35.7898 37.7894 35.415 37.415L29.415 31.415C29.2293 31.229 29.0087 31.0815 28.7659 30.9809C28.5231 30.8802 28.2628 30.8284 28 30.8284C27.7372 30.8284 27.4769 30.8802 27.2341 30.9809C26.9913 31.0815 26.7707 31.229 26.585 31.415L20.585 37.415C20.2102 37.7894 19.7022 37.9998 19.1725 38H4C3.46957 38 2.96086 37.7893 2.58579 37.4142C2.21071 37.0391 2 36.5304 2 36Z" stroke="white" stroke-width="3" stroke-linecap="round" stroke-linejoin="round"/>
<path d="M16 26C19.3137 26 22 23.3137 22 20C22 16.6863 19.3137 14 16 14C12.6863 14 10 16.6863 10 20C10 23.3137 12.6863 26 16 26Z" stroke="white" stroke-width="3" stroke-linecap="round" stroke-linejoin="round"/>
<path d="M40 26C43.3137 26 46 23.3137 46 20C46 16.6863 43.3137 14 40 14C36.6863 14 34 16.6863 34 20C34 23.3137 36.6863 26 40 26Z" stroke="white" stroke-width="3" stroke-linecap="round" stroke-linejoin="round"/>
</svg>
