<svg viewBox="0 0 48 48" xmlns="http://www.w3.org/2000/svg" fill="#1c1d21">
	<style>
		@media(prefers-color-scheme:dark){path{fill:#fff}}@media(prefers-color-scheme:light){path{fill:#1c1d21}}</style>
	<path
		d="M41,6H7A2,2,0,0,0,5,8V32a2,2,0,0,0,2,2H41a2,2,0,0,0,2-2V8A2,2,0,0,0,41,6ZM21.4,24.6a1.9,1.9,0,0,1-.2,3,2,2,0,0,1-2.7-.3l-5.9-5.9a1.9,1.9,0,0,1,0-2.8l5.9-6a2.3,2.3,0,0,1,2.7-.3,2,2,0,0,1,.2,3.1L16.8,20Zm14-3.2-5.9,5.9a2,2,0,0,1-2.7.3,1.9,1.9,0,0,1-.2-3L31.2,20l-4.6-4.6a2,2,0,0,1,.2-3.1,2.3,2.3,0,0,1,2.7.3l5.9,6A1.9,1.9,0,0,1,35.4,21.4Z"></path>
	<path d="M44,38H4a2,2,0,0,0,0,4H44a2,2,0,0,0,0-4Z"></path>
</svg>