<svg width="24" height="24" viewBox="0 0 24 24" fill="none" xmlns="http://www.w3.org/2000/svg">
<path d="M3.46687 1.21872C1.817 1.21872 0.738281 2.30211 0.738281 3.72607C0.738281 5.11859 1.78487 6.23288 3.40356 6.23288H3.43488C5.11702 6.23288 6.16388 5.11859 6.16388 3.72607C6.13243 2.30211 5.11702 1.21872 3.46687 1.21872Z" fill="black"/>
<path d="M1.02344 8.21411H5.84671V22.7251H1.02344V8.21411Z" fill="black"/>
<path d="M17.6855 7.87354C15.0836 7.87354 13.3388 10.3185 13.3388 10.3185V8.21411H8.51538V22.7251H13.3385V14.6216C13.3385 14.1878 13.37 13.7547 13.4974 13.4444C13.8461 12.5782 14.6396 11.6807 15.9721 11.6807C17.7174 11.6807 18.4154 13.0114 18.4154 14.9622V22.7251H23.2383V14.4048C23.2383 9.94762 20.8587 7.87354 17.6855 7.87354Z" fill="black"/>
</svg>
