<svg width="27" height="27" viewBox="0 0 27 27" fill="none" xmlns="http://www.w3.org/2000/svg">
<g id="feather">
<path id="Vector (Stroke)" fill-rule="evenodd" clip-rule="evenodd" d="M18.5234 8.72514C18.9505 9.15227 18.9505 9.8448 18.5234 10.2719L3.2109 25.5844C2.78376 26.0116 2.09124 26.0116 1.6641 25.5844C1.23697 25.1573 1.23697 24.4648 1.6641 24.0376L16.9766 8.72514C17.4037 8.298 18.0963 8.298 18.5234 8.72514Z" fill="white"/>
<g id="Vector">
<path fill-rule="evenodd" clip-rule="evenodd" d="M12.3282 4.07605C13.7647 2.63954 15.713 1.83252 17.7445 1.83252C19.7761 1.83252 21.7244 2.63954 23.1609 4.07605C24.5974 5.51256 25.4044 7.46089 25.4044 9.49242C25.4044 11.5236 24.5977 13.4715 23.1617 14.9079L23.1609 14.9088L15.7902 22.3014C15.585 22.5072 15.3063 22.6229 15.0156 22.6229H5.71875C5.11469 22.6229 4.625 22.1332 4.625 21.5291V12.2323C4.625 11.9422 4.74023 11.664 4.94535 11.4589L12.3282 4.07605ZM17.7445 4.02002C16.2932 4.02002 14.9012 4.59657 13.875 5.62285L6.8125 12.6853V20.4354H14.5616L21.613 13.3631L21.6141 13.362C22.6404 12.3357 23.2169 10.9438 23.2169 9.49242C23.2169 8.04105 22.6404 6.64912 21.6141 5.62285C20.5878 4.59657 19.1959 4.02002 17.7445 4.02002Z" fill="white"/>
<path fill-rule="evenodd" clip-rule="evenodd" d="M9 17.1541C9 16.5501 9.48969 16.0604 10.0938 16.0604H18.8438C19.4478 16.0604 19.9375 16.5501 19.9375 17.1541C19.9375 17.7582 19.4478 18.2479 18.8438 18.2479H10.0938C9.48969 18.2479 9 17.7582 9 17.1541Z" fill="white"/>
</g>
</g>
</svg>
