<svg width="35" height="23" viewBox="0 0 35 23" fill="none" xmlns="http://www.w3.org/2000/svg">
<g id="activity">
<path id="Vector (Stroke)" fill-rule="evenodd" clip-rule="evenodd" d="M13.1253 2.33228C13.753 2.33228 14.3103 2.58475 14.5088 2.95907L21.8753 16.8502L24.8668 11.2091C25.0653 10.8348 25.6226 10.5823 26.2503 10.5823H32.0836C32.889 10.5823 33.542 10.9927 33.542 11.4989C33.542 12.0052 32.889 12.4156 32.0836 12.4156H27.3014L23.2588 20.0388C23.0603 20.4131 22.503 20.6656 21.8753 20.6656C21.2476 20.6656 20.6903 20.4131 20.4918 20.0388L13.1253 6.1477L10.1338 11.7888C9.93528 12.1631 9.378 12.4156 8.75028 12.4156H2.91695C2.11154 12.4156 1.45862 12.0052 1.45862 11.4989C1.45862 10.9927 2.11154 10.5823 2.91695 10.5823H7.69918L11.7418 2.95907C11.9403 2.58475 12.4976 2.33228 13.1253 2.33228Z" fill="white"/>
</g>
</svg>
