<svg width="8" height="20" viewBox="0 0 8 20" fill="none" xmlns="http://www.w3.org/2000/svg">
<path d="M4.60355 1.14449C4.40829 0.949231 4.09171 0.949231 3.89645 1.14449L0.714466 4.32647C0.519204 4.52174 0.519204 4.83832 0.714466 5.03358C0.909728 5.22884 1.22631 5.22884 1.42157 5.03358L4.25 2.20515L7.07843 5.03358C7.27369 5.22884 7.59027 5.22884 7.78553 5.03358C7.9808 4.83832 7.9808 4.52174 7.78553 4.32647L4.60355 1.14449ZM3.89645 19.8516C4.09171 20.0469 4.40829 20.0469 4.60355 19.8516L7.78553 16.6696C7.9808 16.4744 7.9808 16.1578 7.78553 15.9625C7.59027 15.7673 7.27369 15.7673 7.07843 15.9625L4.25 18.7909L1.42157 15.9625C1.22631 15.7673 0.909728 15.7673 0.714465 15.9625C0.519203 16.1578 0.519203 16.4744 0.714465 16.6696L3.89645 19.8516ZM3.75 1.49805L3.75 19.498L4.75 19.498L4.75 1.49805L3.75 1.49805Z" fill="#BBBBBB"/>
</svg>
