<?xml version="1.0" encoding="UTF-8" standalone="no"?>
<!-- Created with Inkscape (http://www.inkscape.org/) -->

<svg
   width="210mm"
   height="297mm"
   viewBox="0 0 210 297"
   version="1.1"
   id="svg115"
   inkscape:version="1.2.1 (9c6d41e410, 2022-07-14)"
   sodipodi:docname="рисунок.svg"
   xmlns:inkscape="http://www.inkscape.org/namespaces/inkscape"
   xmlns:sodipodi="http://sodipodi.sourceforge.net/DTD/sodipodi-0.dtd"
   xmlns="http://www.w3.org/2000/svg"
   xmlns:svg="http://www.w3.org/2000/svg">
  <sodipodi:namedview
     id="namedview117"
     pagecolor="#505050"
     bordercolor="#eeeeee"
     borderopacity="1"
     inkscape:showpageshadow="0"
     inkscape:pageopacity="0"
     inkscape:pagecheckerboard="0"
     inkscape:deskcolor="#505050"
     inkscape:document-units="mm"
     showgrid="false"
     inkscape:zoom="1.1893044"
     inkscape:cx="257.29325"
     inkscape:cy="1262.0823"
     inkscape:window-width="1920"
     inkscape:window-height="1046"
     inkscape:window-x="-11"
     inkscape:window-y="-11"
     inkscape:window-maximized="1"
     inkscape:current-layer="layer1" />
  <defs
     id="defs112">
    <rect
       x="86.210463"
       y="906.69625"
       width="239.60563"
       height="49.348058"
       id="rect368" />
    <clipPath
       clipPathUnits="userSpaceOnUse"
       id="clipPath5062">
      <path
         id="path5064"
         style="fill:#ff0000;fill-opacity:1;fill-rule:nonzero;stroke:none;stroke-width:0.264583"
         d="m -31.525723,195.68625 v 144.1018 h 123.44931 c -4.330973,-1.06807 -8.663689,-2.12984 -13.008507,-3.1409 -4.961784,-1.17252 -7.714959,-1.84486 -12.76563,-2.94711 -10.23978,-2.23472 -20.541877,-4.18624 -30.876668,-5.92624 -8.700183,-1.45534 -8.176972,-1.40864 -16.791223,-2.68976 -6.368487,-0.94715 -12.7564702,-1.77591 -19.11924616,-2.76108 -0.99545924,-0.15412 -1.98573134,-0.33965 -2.97862964,-0.50954 -9.2098602,-1.57546 -7.6624092,-10.11663 0.6831624,-9.926 0.5266996,0.0119 1.0825771,0.0617 1.6624309,0.14727 -0.8872436,-2.83263 1.53866133,-5.96323 6.5474039,-5.83528 0.553207,0.014 1.1377827,0.0679 1.7528646,0.16639 9.736695,1.55827 19.506147,2.92675 29.325859,3.84731 3.048476,0.28578 6.102709,0.50882 9.153964,0.76327 18.686425,1.43923 37.423632,1.91148 56.154712,2.31198 14.9094,0.3451 29.82426,0.35608 44.7337,0.68369 2.00774,0.098 4.01671,0.17663 6.02341,0.29403 0.23555,0.0138 0.4301,0.0273 0.6568,0.0408 4.8413,-0.5049 9.69615,-0.86169 14.55416,-1.15805 2.59141,-0.15812 5.91885,-0.35491 8.52971,-0.38862 1.34143,-0.0172 2.68307,0.0241 4.02456,0.0362 3.92415,0.0496 7.80826,0.54184 11.66182,1.23455 0.42965,-1.13072 1.90625,-2.06735 2.61431,-3.14659 0.67774,-0.35922 1.34297,-0.74342 2.03347,-1.07746 1.53992,-0.74499 4.17128,-1.82898 5.69422,-2.43602 3.84412,-1.53225 7.73306,-2.95968 11.69696,-4.15324 4.06617,-1.0908 8.13663,-2.10386 12.24267,-3.03392 1.95853,-0.44363 3.90477,-0.94883 5.87922,-1.31517 0.69797,-0.12949 1.4059,-0.19709 2.10892,-0.29559 0.77111,-0.10798 1.47837,-0.15994 2.12235,-0.16277 0.81497,-0.004 1.52798,0.0724 2.14251,0.21447 V 195.68625 Z M 238.38287,322.62217 c -0.10781,0.0561 -0.22962,0.1247 -0.34004,0.18294 0.17226,0.3542 0.28213,0.72861 0.34004,1.1126 z m -85.05166,1.78697 c -10.39958,1.19714 -20.75365,2.76662 -31.17484,3.776 -8.35152,0.751 -16.73354,1.46199 -25.123533,1.53427 0.338796,0.0688 0.694102,0.15952 0.971518,0.14933 3.867485,-0.1406 4.306835,-0.14705 8.512145,-0.2749 14.19975,-0.38751 28.4009,-0.62434 42.60566,-0.73536 10.17042,-0.12517 20.34664,-0.29149 30.51907,-0.21963 -0.65789,-0.14528 -1.31475,-0.29525 -1.973,-0.43873 -5.24146,-1.12421 -10.47835,-2.24949 -15.79439,-2.97347 -3.25123,-0.44275 -5.52524,-0.6292 -8.54263,-0.81751 z m 85.05166,0.70073 c -0.25096,1.59774 -1.48168,3.21323 -3.81269,4.25555 1.27003,0.10322 2.5407,0.19887 3.81269,0.28112 z m -145.313616,4.59144 c 0.934,0.22985 1.868599,0.45728 2.802414,0.68784 0.04394,-0.14528 0.08302,-0.29797 0.127124,-0.44185 0.03325,-0.10848 0.101227,-0.17214 0.181901,-0.21911 -1.037082,0.003 -2.074167,-0.009 -3.111439,-0.0269 z m 91.148446,9.04598 c -0.99456,0.003 -1.92944,1.8e-4 -3.01326,0.0119 -9.52146,0.10216 -19.03828,0.46456 -28.55639,0.7116 -3.90268,0.11057 -7.80571,0.21942 -11.70885,0.31729 h 80.03026 c -6.8539,-0.18532 -13.70721,-0.38939 -20.55999,-0.60669 -2.77441,-0.08 -5.54842,-0.16608 -8.323,-0.23977 -2.62267,-0.0697 -5.24563,-0.1492 -7.86877,-0.19431 z" />
    </clipPath>
  </defs>
  <g
     inkscape:label="Шар 1"
     inkscape:groupmode="layer"
     id="layer1">
    <text
       xml:space="preserve"
       transform="scale(0.26458333)"
       id="text366"
       style="fill:#000000;white-space:pre;shape-inside:url(#rect368)" />
    <path
       id="path376"
       clip-path="url(#clipPath5062)"
       style="fill:#f2f6ff;stroke-width:0.264583;fill-opacity:1"
       d="m 197.38743,195.68676 c -14.53767,0.0307 -35.87198,14.9921 -75.31529,59.78343 -63.078835,71.63179 -109.780963,9.04515 -122.4312912,-11.44477 0.001994,0.29433 0.00481,0.58912 0.009302,0.88366 0.0266957,0.90055 0.0522889,1.80136 0.0692464,2.70216 0.0127902,0.74983 0.0193749,1.49955 0.0242879,2.24948 0.002881,0.46418 0.00441,0.92849 0.005168,1.39268 -0.007702,0.40534 -0.0246122,0.81018 -0.0361735,1.21543 -0.016777,0.30408 -0.0392546,0.60782 -0.05271,0.91209 -0.0105802,0.26072 -0.0142062,0.52148 -0.0170532,0.78238 -0.002421,0.2435 -0.003095,0.48719 -0.003617,0.7307 0.00517,0.29281 -0.0286451,0.58384 -0.0552938,0.87488 -0.0334688,0.35508 -0.0854132,0.70789 -0.14211019,1.05989 -0.0379466,0.19479 -0.075807,0.38958 -0.11317139,0.58446 h 0.5880778 c 0.00146,0.045 0.0014228,0.09 0.0041341,0.13487 0.01611154,0.26659 0.0440157,0.53105 0.05270996,0.7984 0.01316835,0.40492 0.0090018,0.5978 0.0077515,1.01183 -0.01787818,1.04495 -0.05923101,2.08986 -0.15606282,3.13056 -0.0635181,0.69234 -0.18441185,1.3766 -0.31781006,2.05827 -0.0650416,0.36893 -0.15459023,0.73293 -0.23254395,1.09916 -0.0366729,0.24424 -0.0555059,0.49106 -0.0563273,0.73794 -0.001148,0.33153 0.0121743,0.66235 0.0392741,0.9927 0.0489034,0.54865 0.0694374,1.09887 0.0671794,1.64951 -9.5706e-4,0.4014 -0.0395504,0.80107 -0.0795817,1.19993 l -1.31723229,-0.13436 c -0.00948,0.10947 -0.015629,0.21922 -0.025321,0.32866 -0.055915,0.52057 -0.1108555,1.04124 -0.1632975,1.56218 l 0.607198,-0.27595 c 0.2306292,0.5439 0.4164937,1.10567 0.594279,1.66863 0.10050994,0.33487 0.20148019,0.6708 0.26354981,1.01544 0.0446808,0.24809 0.0461477,0.31424 0.0728638,0.57154 0.0599677,0.87599 0.0618232,1.75473 0.0697632,2.6324 0.002021,1.10531 0.0241756,2.21101 -0.003617,3.31608 -0.027605,0.51781 -0.0824194,1.03405 -0.15812988,1.54719 0.0462927,0.19573 0.0896868,0.39203 0.11678873,0.5917 0.00943,0.0648 0.0196453,0.1293 0.0279053,0.1943 0.0406385,0.31964 0.0523126,0.64243 0.0578776,0.96428 0.004069,0.32189 0.008448,0.64367 0.0222209,0.96532 0.0107618,0.25358 0.016628,0.5074 0.019637,0.76119 0.007137,0.2462 0.0178897,0.49232 0.0366903,0.73794 0.0250241,0.32393 0.0579612,0.64794 0.0609782,0.97307 0.002167,0.3596 -0.008362,0.71886 -0.0268718,1.07797 -0.0221036,0.34397 -0.0538325,0.68746 -0.11627197,1.02681 -0.0384416,0.23502 -0.0756596,0.47026 -0.11937256,0.70435 0.005863,0.0295 0.0125306,0.0589 0.0186035,0.0884 0.0639746,0.34936 0.0779691,0.70455 0.0764811,1.05885 2.307e-4,0.20066 -0.009437,0.40077 -0.0335897,0.59996 -0.0149505,0.11382 -0.0337068,0.22748 -0.0465088,0.34158 -0.008396,0.1088 -0.0168762,0.21732 -0.0258382,0.32608 -0.0159222,0.23287 -0.0192924,0.46639 -0.0232544,0.6997 -0.00236,0.30048 0.0104924,0.60052 0.0310059,0.9002 0.0285118,0.39118 0.0551423,0.78272 0.0878499,1.17357 0.0250479,0.2586 0.0542715,0.51645 0.10128581,0.77205 0.0474174,0.22751 0.13066249,0.44532 0.21807454,0.65991 0.0942027,0.22259 0.19267706,0.44369 0.30179037,0.65939 0.0944144,0.193 0.20888332,0.37431 0.32607829,0.55397 0.085054,0.12807 0.17950229,0.24933 0.28318684,0.36277 0.10918338,0.11378 0.21733337,0.22793 0.31625977,0.35088 0.1188481,0.15485 0.2137887,0.32577 0.3033407,0.49868 0.045958,0.0964 0.088375,0.19591 0.1167887,0.29921 0.039066,0.0316 0.081434,0.059 0.1198893,0.0915 0.1240533,0.10829 0.1632798,0.13961 0.2811198,0.25322 0.1936955,0.18675 0.3714667,0.3885 0.5389852,0.59893 0.2512907,0.32195 0.4919268,0.6525 0.7022827,1.00304 0.1491711,0.23894 0.2960264,0.47877 0.4547526,0.71158 l -0.052193,0.032 c 1.6295888,0.3294 3.295693,0.415 4.9526693,0.49403 2.4512718,0.0519 4.8663348,0.46743 7.2899938,0.79116 1.866178,0.29863 3.739648,0.35954 5.62343,0.30024 2.202631,-0.0959 4.406349,-0.16987 6.610449,-0.22117 2.07027,-0.0174 4.139094,-0.0922 6.204789,-0.23048 2.080798,-0.13817 4.099927,-0.70656 6.132443,-1.13895 2.290233,-0.49007 4.614143,-0.78438 6.946346,-0.97565 1.79788,-0.1286 3.599973,-0.18389 5.401737,-0.21859 1.573691,-0.025 3.147803,-0.0312 4.721676,-0.0362 1.750778,-0.004 3.50161,-0.006 5.252392,-0.006 1.85025,-5.8e-4 3.700316,-0.001 5.550566,-0.001 1.940226,-5e-4 3.879681,0.033 5.817216,-0.0822 2.668019,-0.17877 5.332228,-0.40466 8.001579,-0.56586 2.678511,-0.1606 5.362493,-0.20316 8.044987,-0.23926 3.131808,-0.0339 6.26385,-0.04 9.395808,-0.047 2.603087,-0.005 5.206257,-0.007 7.809347,-0.008 2.06745,-5.7e-4 4.13513,-0.001 6.20272,-0.001 1.72882,-1.3e-4 3.45794,2e-5 5.18676,0 2.00048,-0.0699 4.00013,-0.15318 6.00119,-0.20568 2.49754,-0.0228 4.99325,-0.0951 7.48894,-0.18965 2.30257,-0.0868 4.60624,-0.12668 6.90759,-0.23926 2.16691,-0.10696 4.33453,-0.17433 6.5009,-0.29145 2.28931,-0.1267 4.58103,-0.20192 6.87296,-0.25322 2.1077,-0.0826 4.21479,0.0165 6.32106,0.0832 2.38259,0.11303 4.76008,0.31952 7.13652,0.52142 2.39128,0.14707 4.76594,0.45368 7.1453,0.72036 1.75193,0.20763 3.50899,0.30507 5.27151,0.23927 2.23147,-0.12093 4.4639,-0.20975 6.69779,-0.26975 2.29708,-0.0344 4.59148,-0.0522 6.8802,-0.26614 2.28945,-0.25272 4.58391,-0.44667 6.8833,-0.58136 2.22565,-0.11584 4.45502,-0.14685 6.68331,-0.17415 1.8437,0.0217 3.684,-0.0842 5.52473,-0.1695 0.8094,-0.0356 1.61895,-0.0607 2.42879,-0.0822 -0.16955,-1.62568 -0.34953,-3.24939 -0.47284,-4.87981 -0.15481,-2.11264 -0.17881,-4.23189 -0.20671,-6.34896 -0.0247,-2.17472 -0.0327,-4.34983 -0.0387,-6.52467 -0.003,-1.7222 0.0326,-3.44471 -0.11834,-5.16196 -0.27563,-1.77741 -0.55275,-3.5518 -0.73794,-5.34179 -0.21454,-2.27952 -0.28183,-4.56909 -0.33383,-6.85695 -0.0395,-2.02296 -0.0536,-4.04623 -0.0636,-6.06939 -0.007,-1.87197 -0.009,-3.74421 -0.0103,-5.6162 -0.0392,-1.87146 0.0707,-3.73961 0.14935,-5.60844 0.0752,-1.80458 0.1041,-3.61087 0.1266,-5.41673 0.0204,-1.79873 0.0255,-3.59761 0.0305,-5.39657 -0.0375,-1.98874 0.19307,-3.96764 0.35089,-5.94692 0.0935,-1.61673 0.26428,-3.22719 0.3824,-4.84208 0.1068,-1.63621 0.16724,-3.27389 0.0822,-4.91185 -0.15355,-2.26165 -0.26807,-4.52539 -0.35037,-6.7908 -0.0436,-2.39135 0.0277,-4.77945 0.2527,-7.16028 0.13091,-1.29513 0.34675,-2.57771 0.60616,-3.85196 -4.53537,-4.12478 -9.42613,-6.7468 -15.5112,-6.73396 z m -228.871296,58.74629 -0.04186,0.23978 c 0.03856,0.0326 0.07797,0.0636 0.116272,0.0966 0.01911,-0.0376 0.03937,-0.0778 0.05684,-0.11214 -0.04364,-0.0761 -0.0871,-0.14719 -0.131258,-0.22427 z m 23.3143388,7.19801 c -1.71e-5,0.0138 2.65e-5,0.0276 0,0.0413 0.00107,-0.0138 0.00203,-0.0276 0.0031,-0.0413 z m 5.5262777,38.37543 c 2.912e-4,0.001 7.664e-4,0.002 0.00103,0.003 l 0.00207,-0.001 c -0.00103,-6.8e-4 -0.00207,-0.001 -0.0031,-0.002 z m 238.7890395,7.81658 c -0.86055,0.76834 -1.81082,1.43074 -2.88871,1.9265 -1.98405,0.88458 -4.02713,1.64445 -6.14846,2.13113 -1.9499,0.45374 -3.91767,0.69822 -5.92264,0.70022 -1.56663,0.005 -3.13345,0.0108 -4.69997,0.031 -1.10775,0.0155 -2.21539,0.0407 -3.32279,0.0734 l 0.51366,8.95346 c -1.28111,0.0734 -2.56227,0.1479 -3.84473,0.1943 -3.46685,0.0936 -6.93221,-0.0294 -10.39936,-0.0631 -4.49655,0.005 -8.99014,-0.0861 -13.48445,-0.22944 -5.48959,-0.0973 -10.9782,0.0297 -16.46773,0.10232 -7.93476,0.0978 -15.86789,0.21444 -23.79906,0.48938 -1.48009,0.006 -2.96013,0.0399 -4.44004,0.0165 -2.57697,-0.0408 -5.73236,-0.22008 -8.31422,-0.40049 -1.92462,-0.13448 -4.65452,-0.35214 -6.61097,-0.61702 -0.76731,-0.10388 -1.52639,-0.25904 -2.28978,-0.3886 l 1.78439,-7.13755 c -0.31682,0.004 -0.63346,0.0147 -0.95033,0.0176 -2.11869,0.055 -4.23553,0.1535 -6.35414,0.2098 -1.72846,2e-5 -3.45727,3.9e-4 -5.18573,5.2e-4 -2.06603,0 -4.13204,6.5e-4 -6.19807,0.001 -2.59505,10e-4 -5.19001,0.003 -7.785054,0.008 -3.081601,0.007 -6.163457,0.013 -9.244914,0.046 -2.471795,0.033 -4.944764,0.0694 -7.412984,0.216 -2.688326,0.16123 -5.371065,0.39481 -8.058423,0.56896 -2.189776,0.11734 -4.379677,0.11807 -6.572209,0.10387 -1.848721,10e-5 -3.69771,-6e-5 -5.546431,5.2e-4 -1.738804,0 -3.477936,0.001 -5.216736,0.005 -1.501501,0.005 -3.002754,0.0108 -4.504118,0.0341 -1.526542,0.0289 -3.053421,0.0732 -4.576981,0.17725 -1.753383,0.13668 -3.499651,0.35911 -5.221387,0.72451 -2.666185,0.5639 -5.318724,1.2684 -8.053772,1.40456 -2.256536,0.14589 -4.516472,0.2384 -6.777881,0.2558 -2.176764,0.0504 -4.352408,0.12643 -6.527767,0.21963 -2.616725,0.0725 -5.226802,-0.0197 -7.819161,-0.41497 -1.651981,-0.22254 -3.298374,-0.49917 -4.9604206,-0.62166 0.084502,0.0489 0.1706586,0.0945 0.2547648,0.14417 2.2965598,1.87036 3.7013538,2.49795 3.5408688,5.19297 5.319709,0.129 10.640169,0.25279 15.960783,0.34003 7.462263,0.0418 14.928315,0.25695 22.390882,0.12712 1.800034,-0.0313 3.599463,-0.0945 5.399153,-0.14159 2.080063,-0.0793 4.160098,-0.1658 6.240446,-0.2372 5.876258,-0.20158 8.265132,-0.28235 14.201201,-0.28835 7.080931,-0.007 14.163683,0.17572 21.242631,0.32039 12.261649,0.28848 24.522549,0.59961 36.787419,0.70125 12.91808,0.17609 25.83254,-0.30381 38.74647,-0.54002 12.01721,-0.2487 24.03479,0.26939 36.04638,0.58653 8.18851,0.2096 16.38007,0.33397 24.57059,0.43408 0.63717,-4.48645 1.30453,-9.73238 1.91978,-15.37787 z M 76.933805,331.76631 c -1.780693,0.001 -2.938758,0.0249 -4.260722,0.0413 l 158.886427,7.9804 c 0,0 0.47093,-2.51906 1.1343,-6.53811 -7.76866,-0.0989 -15.53722,-0.2197 -23.30401,-0.41858 -11.86173,-0.31319 -23.72953,-0.82776 -35.59679,-0.58497 -13.00309,0.23748 -26.00635,0.71984 -39.01364,0.54105 -12.30559,-0.10231 -24.60754,-0.41269 -36.909892,-0.7028 -6.976736,-0.1426 -13.956945,-0.32333 -20.935673,-0.31833 z" />
  </g>
</svg>
